<svg xmlns="http://www.w3.org/2000/svg" xmlns:xlink="http://www.w3.org/1999/xlink" preserveAspectRatio="xMidYMid" width="46" height="40" viewBox="0 0 46 40">
  <defs>
    <style>

      .cls-2 {
        fill: #ffffff;
        opacity: 0.9;
      }
    </style>
  </defs>
  <path d="M46.026,20.170 C46.026,22.235 39.823,23.966 31.435,24.463 C31.435,24.463 19.374,38.973 19.374,38.973 C18.674,39.910 17.744,40.000 17.744,40.000 C17.744,40.000 12.339,40.000 12.339,40.000 C12.339,40.000 20.055,24.129 20.055,24.129 C16.157,23.655 11.862,22.866 9.310,21.897 C9.310,21.897 4.514,28.700 4.514,28.700 C3.956,29.700 2.927,29.700 2.927,29.700 C2.927,29.700 0.008,29.701 0.008,29.701 C0.008,29.701 3.805,20.557 3.805,20.557 C3.805,20.557 0.005,11.415 0.005,11.415 C0.005,11.415 2.924,11.414 2.924,11.414 C2.924,11.414 3.953,11.414 4.511,12.414 C4.511,12.414 8.900,18.635 8.900,18.635 C11.410,17.574 16.051,16.705 20.216,16.204 C20.216,16.204 12.332,0.002 12.332,0.002 C12.332,0.002 15.138,0.001 15.138,0.001 C15.138,0.001 18.667,0.090 19.367,1.027 C19.367,1.027 31.739,15.900 31.739,15.900 C39.973,16.418 46.025,18.130 46.026,20.170 Z" id="path-1" class="cls-2" fill-rule="evenodd"/>
</svg>
