<svg xmlns="http://www.w3.org/2000/svg" xmlns:xlink="http://www.w3.org/1999/xlink" preserveAspectRatio="xMidYMid" width="24" height="60" viewBox="0 0 24 60">
  <defs>
    <style>

      .cls-2 {
        fill: #ffffff;
      }
    </style>
  </defs>
  <path d="M22.517,22.648 C22.517,22.648 15.596,29.570 15.596,29.570 C15.596,29.570 22.517,36.491 22.517,36.491 C24.050,38.023 24.050,40.508 22.517,42.040 C22.517,42.040 10.730,53.826 10.730,53.826 C10.730,53.826 10.730,48.154 10.730,48.154 C10.730,48.154 10.730,43.488 10.730,43.488 C10.730,43.488 10.730,34.435 10.730,34.435 C10.730,34.435 1.857,43.309 1.857,43.309 C1.790,43.377 1.713,43.427 1.642,43.488 C1.642,43.488 1.562,43.488 1.562,43.488 C1.562,43.488 1.562,43.554 1.562,43.554 C1.481,43.619 1.405,43.695 1.321,43.754 C0.837,42.395 0.402,40.965 0.020,39.474 C0.020,39.474 9.918,29.576 9.918,29.576 C9.918,29.576 0.008,19.666 0.008,19.666 C0.390,18.172 0.824,16.739 1.307,15.377 C1.397,15.439 1.477,15.518 1.562,15.587 C1.562,15.587 1.562,15.644 1.562,15.644 C1.562,15.644 1.631,15.644 1.631,15.644 C1.706,15.707 1.787,15.760 1.857,15.831 C1.857,15.831 10.730,24.704 10.730,24.704 C10.730,24.704 10.730,15.644 10.730,15.644 C10.730,15.644 10.730,10.997 10.730,10.997 C10.730,10.997 10.730,5.313 10.730,5.313 C10.730,5.313 22.517,17.100 22.517,17.100 C24.050,18.632 24.050,21.116 22.517,22.648 ZM14.805,44.079 C14.805,44.079 18.737,40.148 18.737,40.148 C18.737,40.148 18.731,40.143 18.731,40.143 C19.193,39.625 19.181,38.833 18.684,38.336 C18.674,38.326 18.661,38.319 18.651,38.309 C18.651,38.309 14.805,34.463 14.805,34.463 C14.805,34.463 14.805,44.079 14.805,44.079 ZM18.684,18.946 C18.674,18.935 18.661,18.928 18.651,18.918 C18.651,18.918 14.805,15.072 14.805,15.072 C14.805,15.072 14.805,24.688 14.805,24.688 C14.805,24.688 18.737,20.757 18.737,20.757 C18.737,20.757 18.731,20.751 18.731,20.751 C19.193,20.234 19.181,19.442 18.684,18.946 Z" id="path-1" class="cls-2" fill-rule="evenodd"/>
</svg>
