<svg xmlns="http://www.w3.org/2000/svg" xmlns:xlink="http://www.w3.org/1999/xlink" preserveAspectRatio="xMidYMid" width="45" height="45" viewBox="0 0 45 45">
  <defs>
    <style>

      .cls-2 {
        fill: #ffffff;
        opacity: 0.9;
      }
    </style>
  </defs>
  <path d="M22.516,44.996 C10.089,44.996 0.016,34.925 0.016,22.500 C0.016,10.076 10.089,0.004 22.516,0.004 C34.942,0.004 45.016,10.076 45.016,22.500 C45.016,34.925 34.942,44.996 22.516,44.996 ZM22.516,1.996 C11.191,1.996 2.011,11.176 2.011,22.500 C2.011,33.824 11.191,43.004 22.516,43.004 C33.840,43.004 43.020,33.824 43.020,22.500 C43.020,11.176 33.840,1.996 22.516,1.996 ZM7.485,34.516 C7.485,34.516 36.473,34.516 36.473,34.516 C36.473,34.516 36.473,35.444 36.473,35.444 C36.473,35.444 7.485,35.444 7.485,35.444 C7.485,35.444 7.485,34.516 7.485,34.516 ZM21.775,13.102 C27.029,13.102 31.287,17.361 31.287,22.614 C31.287,27.867 27.029,32.125 21.775,32.125 C16.522,32.125 12.264,27.867 12.264,22.614 C12.264,17.361 16.522,13.102 21.775,13.102 ZM21.775,30.099 C25.910,30.099 29.261,26.748 29.261,22.613 C29.261,18.479 25.910,15.128 21.775,15.128 C17.641,15.128 14.290,18.479 14.290,22.613 C14.290,26.748 17.641,30.099 21.775,30.099 ZM21.777,11.973 C18.666,11.973 15.876,13.316 13.930,15.444 C13.930,15.444 7.485,15.444 7.485,15.444 C7.485,15.444 7.485,10.516 7.485,10.516 C7.485,10.516 36.473,10.516 36.473,10.516 C36.473,10.516 36.473,15.444 36.473,15.444 C36.473,15.444 29.623,15.444 29.623,15.444 C27.677,13.316 24.887,11.973 21.777,11.973 ZM9.499,8.480 C9.499,8.480 14.522,8.480 14.522,8.480 C14.522,8.480 14.522,9.992 14.522,9.992 C14.522,9.992 9.499,9.992 9.499,9.992 C9.499,9.992 9.499,8.480 9.499,8.480 Z" id="path-1" class="cls-2" fill-rule="evenodd"/>
</svg>
