<svg xmlns="http://www.w3.org/2000/svg" xmlns:xlink="http://www.w3.org/1999/xlink" preserveAspectRatio="xMidYMid" width="45" height="45" viewBox="0 0 45 45">
  <defs>
    <style>

      .cls-2 {
        fill: #fff6ef;
      }
    </style>
  </defs>
  <path d="M22.516,44.996 C10.089,44.996 0.016,34.925 0.016,22.500 C0.016,10.076 10.089,0.004 22.516,0.004 C34.942,0.004 45.016,10.076 45.016,22.500 C45.016,34.925 34.942,44.996 22.516,44.996 ZM22.516,1.996 C11.191,1.996 2.011,11.176 2.011,22.500 C2.011,33.824 11.191,43.004 22.516,43.004 C33.840,43.004 43.020,33.824 43.020,22.500 C43.020,11.176 33.840,1.996 22.516,1.996 ZM26.297,32.716 C26.725,32.025 26.984,31.218 26.984,30.345 C26.984,30.130 26.950,29.924 26.921,29.717 C29.742,27.178 31.654,22.642 31.654,19.188 C31.654,14.123 27.548,10.190 22.483,10.190 C17.418,10.190 13.312,14.123 13.312,19.188 C13.312,22.632 15.213,27.151 18.021,29.694 C17.990,29.908 17.956,30.122 17.956,30.345 C17.956,31.208 18.211,32.007 18.631,32.693 C14.319,30.192 11.235,23.949 11.235,19.092 C11.235,12.880 16.271,8.026 22.484,8.026 C28.696,8.026 33.732,12.880 33.732,19.092 C33.732,23.964 30.629,30.230 26.297,32.716 ZM18.596,25.809 C18.596,23.635 20.358,21.936 22.533,21.936 C24.707,21.936 26.470,23.635 26.470,25.809 C26.470,27.379 25.544,29.353 24.215,30.337 C24.282,30.152 24.334,29.957 24.334,29.748 C24.334,29.609 24.286,29.486 24.255,29.356 C25.147,28.446 25.742,26.980 25.742,25.843 C25.742,24.070 24.305,22.694 22.532,22.694 C20.760,22.694 19.322,24.070 19.322,25.843 C19.322,27.011 19.953,28.520 20.886,29.423 C20.864,29.532 20.820,29.633 20.820,29.748 C20.820,29.989 20.869,30.218 20.957,30.427 C19.568,29.473 18.596,27.423 18.596,25.809 ZM22.470,34.860 C23.456,34.860 24.360,34.535 25.103,33.999 C25.103,33.999 26.987,33.999 26.987,33.999 C26.987,33.999 26.987,35.010 26.987,35.010 C26.987,35.010 17.999,35.010 17.999,35.010 C17.999,35.010 17.999,33.999 17.999,33.999 C17.999,33.999 19.838,33.999 19.838,33.999 C20.580,34.535 21.484,34.860 22.470,34.860 ZM26.987,37.010 C26.987,37.010 17.999,37.010 17.999,37.010 C17.999,37.010 17.999,35.999 17.999,35.999 C17.999,35.999 26.987,35.999 26.987,35.999 C26.987,35.999 26.987,37.010 26.987,37.010 ZM25.987,39.010 C25.987,39.010 18.999,39.010 18.999,39.010 C18.999,39.010 18.999,37.999 18.999,37.999 C18.999,37.999 25.987,37.999 25.987,37.999 C25.987,37.999 25.987,39.010 25.987,39.010 Z" id="path-1" class="cls-2" fill-rule="evenodd"/>
</svg>
