<svg xmlns="http://www.w3.org/2000/svg" xmlns:xlink="http://www.w3.org/1999/xlink" preserveAspectRatio="xMidYMid" width="50" height="46" viewBox="0 0 50 46">
  <defs>
    <style>

      .cls-2 {
        fill: #ffffff;
        opacity: 0.9;
      }
    </style>
  </defs>
  <path d="M30.753,18.847 C31.420,18.847 31.961,19.387 31.961,20.055 C31.961,20.055 31.961,32.510 31.961,32.510 C31.961,33.176 31.420,33.717 30.753,33.717 C30.753,33.717 15.058,33.717 15.058,33.717 C14.391,33.717 13.850,33.176 13.850,32.510 C13.850,32.510 13.850,20.055 13.850,20.055 C13.850,19.387 14.391,18.847 15.058,18.847 C15.058,18.847 15.779,18.847 15.779,18.847 C15.779,18.847 15.779,15.497 15.779,15.497 C15.779,15.497 15.780,15.497 15.780,15.497 C15.781,11.562 18.972,8.372 22.907,8.372 C26.843,8.372 30.034,11.563 30.034,15.499 C30.034,15.503 30.033,15.508 30.033,15.512 C30.033,15.512 30.033,18.847 30.033,18.847 C30.033,18.847 30.753,18.847 30.753,18.847 ZM27.490,15.497 C27.488,12.968 25.438,10.918 22.908,10.918 C20.379,10.918 18.329,12.968 18.327,15.497 C18.327,15.497 18.357,15.497 18.357,15.497 C18.357,15.497 18.357,18.847 18.357,18.847 C18.357,18.847 27.456,18.847 27.456,18.847 C27.456,18.847 27.456,15.497 27.456,15.497 C27.456,15.497 27.490,15.497 27.490,15.497 ZM44.918,25.401 C44.315,26.004 43.337,26.004 42.734,25.401 C42.734,25.401 37.871,20.538 37.871,20.538 C39.233,19.987 40.903,19.635 42.722,19.528 C41.285,9.627 32.791,2.015 22.492,2.015 C11.183,2.015 2.015,11.182 2.015,22.491 C2.015,33.801 11.183,42.968 22.492,42.968 C30.170,42.968 36.851,38.737 40.356,32.484 C40.356,32.484 41.825,33.953 41.825,33.953 C37.904,40.552 30.724,44.988 22.491,44.988 C10.066,44.988 -0.007,34.916 -0.007,22.491 C-0.007,10.066 10.066,-0.007 22.491,-0.007 C33.907,-0.007 43.315,8.502 44.769,19.521 C46.649,19.618 48.376,19.974 49.775,20.544 C49.775,20.544 44.918,25.401 44.918,25.401 Z" id="path-1" class="cls-2" fill-rule="evenodd"/>
</svg>
