<svg xmlns="http://www.w3.org/2000/svg" xmlns:xlink="http://www.w3.org/1999/xlink" preserveAspectRatio="xMidYMid" width="45" height="45" viewBox="0 0 45 45">
  <defs>
    <style>

      .cls-2 {
        fill: #ffffff;
        opacity: 0.9;
      }
    </style>
  </defs>
  <path d="M22.516,44.996 C10.089,44.996 0.016,34.925 0.016,22.500 C0.016,10.076 10.089,0.004 22.516,0.004 C34.942,0.004 45.016,10.076 45.016,22.500 C45.016,34.925 34.942,44.996 22.516,44.996 ZM22.516,1.996 C11.191,1.996 2.011,11.176 2.011,22.500 C2.011,33.824 11.191,43.004 22.516,43.004 C33.840,43.004 43.020,33.824 43.020,22.500 C43.020,11.176 33.840,1.996 22.516,1.996 ZM35.049,25.344 C35.049,25.344 36.059,25.699 36.059,25.699 C35.711,27.179 35.122,28.566 34.345,29.824 C34.345,29.824 33.384,29.362 33.384,29.362 C32.782,29.073 31.577,29.650 30.614,30.614 C29.650,31.578 29.072,32.782 29.362,33.384 C29.362,33.384 29.825,34.346 29.825,34.346 C28.569,35.127 27.170,35.686 25.691,36.038 C25.691,36.038 25.344,35.048 25.344,35.048 C25.123,34.418 23.863,33.975 22.500,33.975 C21.137,33.975 19.877,34.418 19.656,35.048 C19.656,35.048 19.301,36.059 19.301,36.059 C17.821,35.710 16.434,35.122 15.176,34.344 C15.176,34.344 15.638,33.384 15.638,33.384 C15.928,32.782 15.350,31.578 14.386,30.614 C13.423,29.650 12.218,29.073 11.616,29.362 C11.616,29.362 10.654,29.825 10.654,29.825 C9.873,28.569 9.314,27.170 8.962,25.691 C8.962,25.691 9.951,25.344 9.951,25.344 C10.582,25.123 11.026,23.863 11.026,22.500 C11.026,21.138 10.582,19.877 9.951,19.656 C9.951,19.656 8.939,19.300 8.939,19.300 C9.288,17.818 9.897,16.444 10.676,15.187 C10.676,15.187 11.616,15.638 11.616,15.638 C12.218,15.928 13.423,15.350 14.386,14.387 C15.350,13.422 15.928,12.218 15.638,11.615 C15.638,11.615 15.187,10.677 15.187,10.677 C16.444,9.898 17.819,9.290 19.301,8.941 C19.301,8.941 19.656,9.951 19.656,9.951 C19.877,10.582 21.137,11.026 22.500,11.026 C23.863,11.026 25.123,10.582 25.344,9.951 C25.344,9.951 25.699,8.941 25.699,8.941 C27.179,9.289 28.566,9.878 29.824,10.655 C29.824,10.655 29.362,11.615 29.362,11.615 C29.072,12.218 29.650,13.422 30.614,14.387 C31.577,15.350 32.782,15.928 33.384,15.638 C33.384,15.638 34.347,15.175 34.347,15.175 C35.127,16.431 35.686,17.829 36.038,19.309 C36.038,19.309 35.049,19.656 35.049,19.656 C34.418,19.877 33.974,21.138 33.974,22.500 C33.974,23.863 34.418,25.123 35.049,25.344 ZM22.500,15.145 C18.438,15.145 15.145,18.438 15.145,22.500 C15.145,26.563 18.438,29.855 22.500,29.855 C26.562,29.855 29.855,26.563 29.855,22.500 C29.855,18.438 26.562,15.145 22.500,15.145 Z" id="path-1" class="cls-2" fill-rule="evenodd"/>
</svg>
