<svg xmlns="http://www.w3.org/2000/svg" xmlns:xlink="http://www.w3.org/1999/xlink" preserveAspectRatio="xMidYMid" width="52" height="36" viewBox="0 0 52 36">
  <defs>
    <style>

      .cls-2 {
        fill: #ffffff;
      }
    </style>
  </defs>
  <path d="M47.399,15.613 C42.279,9.144 34.377,4.979 25.486,4.979 C16.595,4.979 8.691,9.144 3.571,15.615 C2.698,14.034 1.933,12.362 1.310,10.598 C7.324,4.090 15.926,0.009 25.486,0.009 C35.046,0.009 43.646,4.090 49.660,10.597 C49.037,12.360 48.271,14.032 47.399,15.613 ZM43.929,19.153 C43.929,19.153 40.386,22.696 40.386,22.696 C37.124,17.961 31.670,14.854 25.486,14.854 C19.310,14.854 13.863,17.954 10.600,22.679 C10.600,22.679 7.057,19.136 7.057,19.136 C11.261,13.530 17.940,9.886 25.486,9.886 C33.041,9.886 39.725,13.537 43.929,19.153 ZM25.486,19.764 C30.320,19.764 34.533,22.375 36.824,26.257 C36.824,26.257 35.971,27.110 35.971,27.110 C34.826,27.707 33.632,28.191 32.408,28.590 C30.963,26.273 28.419,24.717 25.486,24.717 C22.554,24.717 20.007,26.272 18.562,28.590 C17.366,28.200 16.198,27.734 15.076,27.155 C15.076,27.155 14.160,26.239 14.160,26.239 C16.453,22.368 20.661,19.764 25.486,19.764 ZM25.486,29.641 C27.305,29.641 28.778,31.115 28.778,32.932 C28.778,34.751 27.305,36.225 25.486,36.225 C23.668,36.225 22.195,34.751 22.195,32.932 C22.195,31.115 23.668,29.641 25.486,29.641 Z" id="path-1" class="cls-2" fill-rule="evenodd"/>
</svg>
