<svg xmlns="http://www.w3.org/2000/svg" xmlns:xlink="http://www.w3.org/1999/xlink" preserveAspectRatio="xMidYMid" width="45" height="45" viewBox="0 0 45 45">
  <defs>
    <style>

      .cls-2 {
        fill: #ffffff;
        opacity: 0.9;
      }
    </style>
  </defs>
  <path d="M22.516,44.996 C12.177,44.996 3.490,38.016 0.855,28.519 C0.855,28.519 2.912,28.519 2.912,28.519 C5.484,36.905 13.286,43.004 22.516,43.004 C33.840,43.004 43.020,33.824 43.020,22.500 C43.020,11.176 33.840,1.996 22.516,1.996 C11.865,1.996 3.115,10.118 2.112,20.505 C2.112,20.505 24.043,20.505 24.043,20.505 C24.043,20.505 16.993,13.455 16.993,13.455 C17.371,11.818 17.849,10.290 18.412,8.900 C18.412,8.900 29.507,19.995 29.507,19.995 C30.883,21.371 30.883,23.601 29.507,24.976 C29.507,24.976 18.424,36.060 18.424,36.060 C17.860,34.674 17.382,33.151 17.002,31.519 C17.002,31.519 24.012,24.509 24.012,24.509 C24.012,24.509 2.112,24.509 2.112,24.509 C2.112,24.511 2.112,24.513 2.113,24.514 C2.113,24.514 0.117,24.514 0.117,24.514 C0.058,23.850 0.016,23.180 0.016,22.500 C0.016,10.076 10.089,0.004 22.516,0.004 C34.942,0.004 45.016,10.076 45.016,22.500 C45.016,34.925 34.942,44.996 22.516,44.996 Z" id="path-1" class="cls-2" fill-rule="evenodd"/>
</svg>
