<svg xmlns="http://www.w3.org/2000/svg" xmlns:xlink="http://www.w3.org/1999/xlink" preserveAspectRatio="xMidYMid" width="45" height="45" viewBox="0 0 45 45">
  <defs>
    <style>

      .cls-2 {
        fill: #ffffff;
        opacity: 0.9;
      }
    </style>
  </defs>
  <path d="M22.516,44.996 C10.089,44.996 0.016,34.925 0.016,22.500 C0.016,10.076 10.089,0.004 22.516,0.004 C34.942,0.004 45.016,10.076 45.016,22.500 C45.016,34.925 34.942,44.996 22.516,44.996 ZM22.516,1.996 C11.191,1.996 2.011,11.176 2.011,22.500 C2.011,27.874 4.095,32.749 7.477,36.405 C7.477,36.405 10.237,29.231 10.237,29.231 C9.007,27.176 8.287,24.780 8.287,22.211 C8.287,14.638 14.426,8.499 21.999,8.499 C29.571,8.499 35.710,14.638 35.710,22.211 C35.710,29.783 29.571,35.922 21.999,35.922 C19.420,35.922 17.017,35.198 14.957,33.960 C14.957,33.960 7.767,36.725 7.767,36.725 C11.497,40.590 16.720,43.004 22.516,43.004 C33.840,43.004 43.020,33.824 43.020,22.500 C43.020,11.176 33.840,1.996 22.516,1.996 ZM21.999,34.053 C28.539,34.053 33.841,28.751 33.841,22.211 C33.841,15.671 28.539,10.369 21.999,10.369 C15.459,10.369 10.157,15.671 10.157,22.211 C10.157,28.751 15.459,34.053 21.999,34.053 Z" id="path-1" class="cls-2" fill-rule="evenodd"/>
</svg>
