<svg xmlns="http://www.w3.org/2000/svg" xmlns:xlink="http://www.w3.org/1999/xlink" preserveAspectRatio="xMidYMid" width="45" height="45" viewBox="0 0 45 45">
  <defs>
    <style>

      .cls-2 {
        fill: #ffffff;
        opacity: 0.9;
      }
    </style>
  </defs>
  <path d="M22.516,44.996 C10.089,44.996 0.016,34.925 0.016,22.500 C0.016,10.076 10.089,0.004 22.516,0.004 C34.942,0.004 45.016,10.076 45.016,22.500 C45.016,34.925 34.942,44.996 22.516,44.996 ZM22.516,1.996 C11.191,1.996 2.011,11.176 2.011,22.500 C2.011,33.824 11.191,43.004 22.516,43.004 C33.840,43.004 43.020,33.824 43.020,22.500 C43.020,11.176 33.840,1.996 22.516,1.996 ZM31.361,14.415 C31.361,14.415 24.340,21.436 24.340,21.436 C24.340,21.436 25.266,21.099 25.266,21.099 C25.266,21.099 25.368,21.378 25.368,21.378 C25.368,21.378 23.843,21.933 23.843,21.933 C23.843,21.933 23.725,22.051 23.725,22.051 C23.813,22.449 23.771,22.878 23.551,23.259 C23.085,24.067 22.052,24.343 21.244,23.877 C20.929,23.695 20.711,23.426 20.581,23.120 C20.581,23.120 8.787,27.413 8.787,27.413 C8.769,27.366 8.746,27.323 8.729,27.276 C8.712,27.229 8.702,27.181 8.685,27.134 C8.685,27.134 20.504,22.832 20.504,22.832 C20.447,22.577 20.429,22.311 20.492,22.046 C20.492,22.046 16.765,18.319 16.765,18.319 C16.765,18.319 16.765,18.319 16.765,18.319 C16.765,18.319 14.728,16.282 14.728,16.282 C14.781,16.199 14.856,16.128 14.916,16.049 C14.916,16.049 14.860,15.994 14.860,15.994 C14.963,15.835 15.084,15.685 15.222,15.547 C15.360,15.409 15.510,15.289 15.667,15.186 C15.667,15.186 15.719,15.238 15.719,15.238 C15.810,15.168 15.893,15.082 15.988,15.020 C15.988,15.020 18.273,17.305 18.273,17.305 C18.273,17.305 18.273,17.305 18.273,17.305 C18.273,17.305 21.753,20.786 21.753,20.786 C21.961,20.745 22.173,20.729 22.386,20.767 C22.386,20.767 30.050,13.103 30.050,13.103 C30.050,13.103 30.050,13.103 30.050,13.103 C30.050,13.103 31.443,11.710 31.443,11.710 C31.907,12.115 32.340,12.558 32.751,13.025 C32.751,13.025 31.361,14.415 31.361,14.415 C31.361,14.415 31.361,14.415 31.361,14.415 Z" id="path-1" class="cls-2" fill-rule="evenodd"/>
</svg>
