<svg xmlns="http://www.w3.org/2000/svg" xmlns:xlink="http://www.w3.org/1999/xlink" preserveAspectRatio="xMidYMid" width="45" height="45" viewBox="0 0 45 45">
  <defs>
    <style>

      .cls-2 {
        fill: #fff6ef;
      }
    </style>
  </defs>
  <path d="M22.516,44.996 C10.089,44.996 0.016,34.925 0.016,22.500 C0.016,10.076 10.089,0.004 22.516,0.004 C34.942,0.004 45.016,10.076 45.016,22.500 C45.016,34.925 34.942,44.996 22.516,44.996 ZM22.516,1.996 C11.191,1.996 2.011,11.176 2.011,22.500 C2.011,33.824 11.191,43.004 22.516,43.004 C33.840,43.004 43.020,33.824 43.020,22.500 C43.020,11.176 33.840,1.996 22.516,1.996 ZM25.797,32.216 C26.225,31.525 26.484,30.718 26.484,29.845 C26.484,29.630 26.450,29.424 26.421,29.217 C29.242,26.678 31.154,22.142 31.154,18.688 C31.154,13.623 27.048,9.690 21.983,9.690 C16.918,9.690 12.812,13.623 12.812,18.688 C12.812,22.132 14.713,26.651 17.521,29.194 C17.490,29.408 17.456,29.622 17.456,29.845 C17.456,30.708 17.711,31.507 18.131,32.193 C13.819,29.692 10.735,23.449 10.735,18.592 C10.735,12.380 15.771,7.526 21.984,7.526 C28.196,7.526 33.232,12.380 33.232,18.592 C33.232,23.464 30.129,29.730 25.797,32.216 ZM18.096,25.309 C18.096,23.135 19.858,21.436 22.033,21.436 C24.207,21.436 25.970,23.135 25.970,25.309 C25.970,26.879 25.044,28.853 23.715,29.837 C23.782,29.652 23.834,29.457 23.834,29.248 C23.834,29.109 23.786,28.986 23.755,28.856 C24.647,27.946 25.242,26.480 25.242,25.343 C25.242,23.570 23.805,22.194 22.032,22.194 C20.260,22.194 18.822,23.570 18.822,25.343 C18.822,26.511 19.453,28.020 20.386,28.923 C20.364,29.032 20.320,29.133 20.320,29.248 C20.320,29.489 20.369,29.718 20.457,29.927 C19.068,28.973 18.096,26.923 18.096,25.309 ZM21.970,34.360 C22.956,34.360 23.860,34.035 24.603,33.499 C24.603,33.499 26.487,33.499 26.487,33.499 C26.487,33.499 26.487,34.510 26.487,34.510 C26.487,34.510 17.499,34.510 17.499,34.510 C17.499,34.510 17.499,33.499 17.499,33.499 C17.499,33.499 19.338,33.499 19.338,33.499 C20.080,34.035 20.984,34.360 21.970,34.360 ZM26.487,36.510 C26.487,36.510 17.499,36.510 17.499,36.510 C17.499,36.510 17.499,35.499 17.499,35.499 C17.499,35.499 26.487,35.499 26.487,35.499 C26.487,35.499 26.487,36.510 26.487,36.510 ZM25.487,38.510 C25.487,38.510 18.499,38.510 18.499,38.510 C18.499,38.510 18.499,37.499 18.499,37.499 C18.499,37.499 25.487,37.499 25.487,37.499 C25.487,37.499 25.487,38.510 25.487,38.510 Z" id="path-1" class="cls-2" fill-rule="evenodd"/>
</svg>
