<svg xmlns="http://www.w3.org/2000/svg" xmlns:xlink="http://www.w3.org/1999/xlink" preserveAspectRatio="xMidYMid" width="45" height="45" viewBox="0 0 45 45">
  <defs>
    <style>

      .cls-2 {
        fill: #ffffff;
        opacity: 0.9;
      }
    </style>
  </defs>
  <path d="M22.516,44.996 C10.089,44.996 0.016,34.925 0.016,22.500 C0.016,10.076 10.089,0.004 22.516,0.004 C34.942,0.004 45.016,10.076 45.016,22.500 C45.016,34.925 34.942,44.996 22.516,44.996 ZM22.516,1.996 C11.191,1.996 2.011,11.176 2.011,22.500 C2.011,33.824 11.191,43.004 22.516,43.004 C33.840,43.004 43.020,33.824 43.020,22.500 C43.020,11.176 33.840,1.996 22.516,1.996 ZM17.368,27.320 C12.956,22.908 10.103,17.993 9.398,14.161 C10.072,12.721 10.963,11.351 12.056,10.089 C12.056,10.089 16.854,15.509 16.854,15.509 C16.854,15.509 15.421,16.943 15.421,16.943 C15.420,16.943 15.419,16.944 15.419,16.944 C15.418,16.945 15.418,16.945 15.418,16.946 C15.418,16.946 15.398,16.965 15.398,16.965 C15.398,16.965 15.404,16.971 15.404,16.971 C14.186,18.250 15.949,22.031 19.370,25.452 C22.791,28.873 26.572,30.636 27.852,29.418 C27.852,29.418 27.860,29.427 27.860,29.427 C27.860,29.427 29.324,27.963 29.324,27.963 C29.324,27.963 34.603,32.637 34.603,32.637 C33.343,33.727 31.974,34.618 30.536,35.292 C26.703,34.590 21.784,31.736 17.368,27.320 Z" id="path-1" class="cls-2" fill-rule="evenodd"/>
</svg>
