<svg xmlns="http://www.w3.org/2000/svg" xmlns:xlink="http://www.w3.org/1999/xlink" preserveAspectRatio="xMidYMid" width="45" height="45" viewBox="0 0 45 45">
  <defs>
    <style>

      .cls-2 {
        fill: #ffffff;
        opacity: 0.9;
      }
    </style>
  </defs>
  <path d="M22.484,45.000 C10.060,45.000 -0.012,34.926 -0.012,22.500 C-0.012,10.074 10.060,0.000 22.484,0.000 C34.909,0.000 44.981,10.074 44.981,22.500 C44.981,34.926 34.909,45.000 22.484,45.000 ZM22.484,2.011 C11.169,2.011 1.996,11.184 1.996,22.500 C1.996,33.816 11.169,42.989 22.484,42.989 C33.800,42.989 42.973,33.816 42.973,22.500 C42.973,11.184 33.800,2.011 22.484,2.011 ZM29.516,26.905 C29.516,27.451 29.400,27.978 29.189,28.473 C29.189,28.473 23.424,28.473 23.424,28.473 C23.424,28.520 23.424,28.566 23.424,28.612 C23.424,34.876 23.003,39.954 22.483,39.954 C21.963,39.954 21.542,34.876 21.542,28.612 C21.542,28.566 21.542,28.520 21.542,28.473 C21.542,28.473 15.778,28.473 15.778,28.473 C15.567,27.978 15.451,27.451 15.451,26.905 C15.451,25.369 16.351,23.989 17.783,23.037 C17.838,19.945 17.946,16.977 18.102,14.191 C16.685,13.338 15.734,12.081 15.565,10.658 C15.565,10.658 29.402,10.658 29.402,10.658 C29.233,12.083 28.279,13.341 26.860,14.193 C27.016,16.977 27.124,19.944 27.180,23.034 C28.614,23.986 29.516,25.367 29.516,26.905 Z" id="path-1" class="cls-2" fill-rule="evenodd"/>
</svg>
