<svg xmlns="http://www.w3.org/2000/svg" xmlns:xlink="http://www.w3.org/1999/xlink" preserveAspectRatio="xMidYMid" width="91" height="90" viewBox="0 0 91 90">
  <defs>
    <style>

      .cls-2 {
        fill: #ffffff;
      }
    </style>
  </defs>
  <path d="M45.000,89.938 C20.147,89.938 -0.000,69.804 -0.000,44.969 C-0.000,20.133 20.147,-0.000 45.000,-0.000 C69.853,-0.000 90.000,20.133 90.000,44.969 C90.000,69.804 69.853,89.938 45.000,89.938 ZM56.159,42.244 C56.159,42.244 36.893,22.978 36.893,22.978 C36.280,24.489 35.761,26.150 35.349,27.930 C35.349,27.930 51.439,44.019 51.439,44.019 C51.450,44.028 51.461,44.035 51.471,44.045 C51.956,44.531 51.968,45.303 51.517,45.808 C51.517,45.808 51.523,45.814 51.523,45.814 C51.523,45.814 35.360,61.977 35.360,61.977 C35.773,63.751 36.293,65.407 36.905,66.914 C36.905,66.914 56.159,47.660 56.159,47.660 C57.654,46.165 57.654,43.740 56.159,42.244 Z" id="path-1" class="cls-2" fill-rule="evenodd"/>
</svg>
