<svg xmlns="http://www.w3.org/2000/svg" xmlns:xlink="http://www.w3.org/1999/xlink" preserveAspectRatio="xMidYMid" width="45" height="45" viewBox="0 0 45 45">
  <defs>
    <style>

      .cls-2 {
        fill: #ffffff;
        opacity: 0.9;
      }
    </style>
  </defs>
  <path d="M22.516,44.996 C12.357,44.996 3.779,38.263 0.983,29.019 C0.983,29.019 3.099,29.019 3.099,29.019 C5.823,37.143 13.474,43.004 22.516,43.004 C33.840,43.004 43.020,33.824 43.020,22.500 C43.020,11.176 33.840,1.996 22.516,1.996 C11.696,1.996 2.855,10.381 2.086,21.005 C2.086,21.005 24.543,21.005 24.543,21.005 C24.543,21.005 17.493,13.955 17.493,13.955 C17.871,12.318 18.349,10.790 18.912,9.400 C18.912,9.400 30.007,20.495 30.007,20.495 C31.383,21.871 31.383,24.101 30.007,25.476 C30.007,25.476 18.924,36.560 18.924,36.560 C18.360,35.174 17.882,33.651 17.502,32.019 C17.502,32.019 24.512,25.009 24.512,25.009 C24.512,25.009 2.180,25.009 2.180,25.009 C2.180,25.011 2.180,25.013 2.181,25.014 C2.181,25.014 0.164,25.014 0.164,25.014 C0.072,24.188 0.016,23.351 0.016,22.500 C0.016,10.076 10.089,0.004 22.516,0.004 C34.942,0.004 45.016,10.076 45.016,22.500 C45.016,34.925 34.942,44.996 22.516,44.996 Z" id="path-1" class="cls-2" fill-rule="evenodd"/>
</svg>
