<?xml version="1.0" encoding="utf-8"?>
<!-- Generator: Adobe Illustrator 18.1.1, SVG Export Plug-In . SVG Version: 6.00 Build 0)  -->
<svg version="1.1" id="Layer_1" xmlns="http://www.w3.org/2000/svg" xmlns:xlink="http://www.w3.org/1999/xlink" x="0px" y="0px"
	 viewBox="0 0 250 250" enable-background="new 0 0 250 250" xml:space="preserve">
<g>
	<g>
		<path fill-rule="evenodd" clip-rule="evenodd" fill="#FFFFFF" d="M125,0C56,0,0,56,0,125s56,125,125,125c69,0,125-56,125-125
			S194,0,125,0z M125,245.9C58.3,245.9,4.2,191.8,4.2,125C4.2,58.3,58.3,4.1,125,4.1c66.7,0,120.8,54.1,120.8,120.9
			C245.8,191.8,191.7,245.9,125,245.9z M107.8,56.6c-2.5,6.1-4.6,12.8-6.2,19.9l44.6,44.6c0,0,0.1,0.1,0.1,0.1c2,2,2,5.1,0.2,7.1
			l0,0l-44.9,44.9c1.7,7.1,3.8,13.8,6.2,19.9l57.3-57.4c6-6,6-15.8,0-21.8L107.8,56.6z"/>
	</g>
</g>
</svg>
