<svg xmlns="http://www.w3.org/2000/svg" xmlns:xlink="http://www.w3.org/1999/xlink" preserveAspectRatio="xMidYMid" width="90" height="90" viewBox="0 0 90 90">
  <defs>
    <style>

      .cls-2 {
        fill: #ffffff;
      }
    </style>
  </defs>
  <path d="M44.999,90.006 C20.145,90.006 -0.001,69.858 -0.001,45.005 C-0.001,20.152 20.145,0.005 44.999,0.005 C69.852,0.005 90.000,20.152 90.000,45.005 C90.000,69.858 69.852,90.006 44.999,90.006 ZM44.999,1.993 C21.243,1.993 1.986,21.250 1.986,45.005 C1.986,68.760 21.243,88.018 44.999,88.018 C68.754,88.018 88.011,68.760 88.011,45.005 C88.011,21.250 68.754,1.993 44.999,1.993 ZM59.931,70.878 C45.659,79.122 27.410,74.230 19.170,59.951 C10.930,45.672 15.820,27.413 30.092,19.169 C44.363,10.925 62.612,15.817 70.852,30.097 C79.091,44.376 74.202,62.634 59.931,70.878 ZM27.590,30.632 C25.840,32.181 24.335,33.814 23.118,35.468 C22.028,40.040 22.262,45.158 23.935,50.165 C25.193,48.167 26.993,46.051 29.248,43.944 C27.597,39.066 27.029,34.413 27.590,30.632 ZM30.260,43.027 C32.812,40.775 35.852,38.556 39.267,36.533 C36.879,32.262 34.932,28.664 33.682,26.217 C31.702,27.388 29.898,28.684 28.277,30.050 C27.880,33.678 28.564,38.215 30.260,43.027 ZM40.533,35.801 C43.992,33.854 47.432,32.329 50.658,31.244 C47.341,27.369 43.756,24.507 40.417,23.037 C38.424,23.759 36.400,24.674 34.397,25.805 C35.890,28.111 38.030,31.597 40.533,35.801 ZM51.957,30.826 C54.909,29.926 57.640,29.423 59.998,29.332 C56.501,25.380 52.188,22.617 47.686,21.276 C45.645,21.505 43.480,21.991 41.264,22.733 C44.817,24.137 48.561,26.956 51.957,30.826 ZM53.407,32.571 C54.722,34.242 55.974,36.058 57.113,38.032 C59.035,41.362 60.442,44.747 61.364,47.995 C63.647,47.257 65.723,46.793 67.488,46.626 C67.153,42.510 65.888,38.271 63.590,34.291 C62.974,33.222 62.287,32.227 61.571,31.269 C59.226,31.249 56.441,31.696 53.407,32.571 ZM55.930,38.716 C54.732,36.641 53.428,34.727 52.067,32.973 C48.754,34.042 45.192,35.596 41.606,37.612 C42.906,39.811 44.281,42.164 45.701,44.625 C47.385,47.543 48.971,50.332 50.412,52.904 C53.828,50.977 57.177,49.457 60.221,48.382 C59.230,45.245 57.805,41.965 55.930,38.716 ZM44.320,45.423 C42.900,42.962 41.551,40.594 40.297,38.368 C36.760,40.467 33.633,42.777 31.051,45.113 C31.890,47.169 32.894,49.256 34.092,51.331 C35.966,54.580 38.092,57.455 40.313,59.882 C42.764,57.782 45.754,55.641 49.131,53.644 C47.626,51.110 46.004,48.340 44.320,45.423 ZM32.907,52.015 C31.768,50.041 30.823,48.048 30.034,46.073 C27.759,48.265 25.980,50.454 24.825,52.496 C25.296,53.595 25.814,54.687 26.431,55.757 C28.727,59.737 31.763,62.953 35.159,65.301 C36.185,63.856 37.626,62.288 39.406,60.680 C37.055,58.256 34.829,55.345 32.907,52.015 ZM23.653,59.238 C26.233,63.124 29.712,66.103 33.658,68.046 C33.875,67.414 34.227,66.731 34.679,66.016 C31.055,63.700 27.836,60.435 25.459,56.318 C24.980,55.486 24.555,54.641 24.167,53.788 C23.235,55.867 23.009,57.745 23.653,59.238 ZM19.385,45.008 C19.383,48.763 20.185,52.563 21.904,56.132 C21.839,54.737 22.308,53.132 23.211,51.415 C21.474,46.476 21.208,41.361 22.257,36.715 C20.379,39.622 19.408,42.540 19.558,45.117 C19.497,45.084 19.445,45.042 19.385,45.008 ZM33.623,22.034 C33.136,22.265 32.654,22.515 32.180,22.789 C31.706,23.063 31.248,23.355 30.804,23.663 C26.434,26.569 23.212,30.611 21.326,35.176 C22.065,34.056 22.950,32.942 23.939,31.848 C25.489,28.590 27.788,25.754 30.804,23.663 C30.846,23.635 30.890,23.609 30.932,23.581 C28.192,25.481 26.094,28.066 24.662,31.062 C25.748,29.939 26.969,28.849 28.294,27.805 C29.080,25.590 30.361,23.840 32.180,22.789 C30.571,23.718 29.468,25.324 28.827,27.390 C30.095,26.427 31.448,25.504 32.901,24.651 C32.352,23.510 32.086,22.843 32.180,22.789 C32.274,22.735 32.718,23.298 33.431,24.345 C34.896,23.512 36.371,22.801 37.839,22.184 C35.731,21.707 33.789,21.860 32.180,22.789 C33.999,21.738 36.155,21.504 38.465,21.930 C40.031,21.304 41.585,20.790 43.100,20.411 C39.791,20.154 36.504,20.679 33.489,22.104 C33.534,22.082 33.578,22.057 33.623,22.034 C36.941,20.466 40.546,19.892 44.142,20.178 C45.584,19.868 46.991,19.658 48.329,19.577 C43.435,18.929 38.324,19.699 33.623,22.034 ZM57.809,22.812 C57.809,22.881 57.820,22.947 57.818,23.016 C55.662,21.598 52.651,20.980 49.196,21.153 C53.741,22.567 58.036,25.355 61.442,29.330 C63.380,29.407 65.004,29.802 66.180,30.556 C63.949,27.282 61.061,24.688 57.809,22.812 ZM67.993,33.625 C67.023,32.320 65.285,31.577 63.019,31.345 C63.563,32.108 64.082,32.899 64.562,33.730 C66.938,37.847 68.154,42.269 68.347,46.567 C69.191,46.534 69.959,46.571 70.614,46.697 C70.905,42.308 70.067,37.804 67.993,33.625 ZM68.379,48.382 C68.217,55.141 65.426,61.402 60.384,65.472 C65.164,61.484 67.671,55.234 67.587,48.475 C65.899,48.686 63.968,49.136 61.844,49.840 C63.668,57.798 62.366,64.644 57.841,67.259 C61.961,64.879 62.862,58.158 60.763,50.224 C57.827,51.278 54.624,52.728 51.347,54.578 C55.446,61.942 58.112,67.102 57.841,67.259 C57.570,67.415 54.437,62.525 50.112,55.291 C46.880,57.202 44.001,59.249 41.624,61.262 C47.445,67.056 53.718,69.640 57.841,67.259 C53.314,69.873 46.736,67.576 40.759,62.015 C39.095,63.497 37.718,64.947 36.692,66.300 C43.463,70.331 51.400,70.979 57.841,67.259 C51.173,71.110 43.098,70.705 36.225,66.948 C35.801,67.561 35.446,68.154 35.185,68.713 C42.303,71.662 50.653,71.410 57.841,67.259 C58.631,66.802 59.374,66.292 60.072,65.736 C59.979,65.808 59.899,65.892 59.805,65.963 C65.815,61.716 69.518,55.265 70.428,48.355 C69.816,48.301 69.118,48.323 68.379,48.382 ZM60.384,65.472 C60.279,65.559 60.179,65.651 60.072,65.736 C60.181,65.652 60.277,65.557 60.384,65.472 ZM32.180,22.789 C32.610,22.541 33.047,22.313 33.489,22.104 C33.051,22.325 32.611,22.540 32.180,22.789 ZM32.180,22.789 C31.749,23.038 31.343,23.312 30.932,23.581 C31.335,23.302 31.750,23.037 32.180,22.789 Z" id="path-1" class="cls-2" fill-rule="evenodd"/>
</svg>
