<?xml version="1.0" encoding="utf-8"?>
<!-- Generator: Adobe Illustrator 18.1.1, SVG Export Plug-In . SVG Version: 6.00 Build 0)  -->
<svg version="1.1" id="Layer_1" xmlns="http://www.w3.org/2000/svg" xmlns:xlink="http://www.w3.org/1999/xlink" x="0px" y="0px"
	 viewBox="0 0 250 250" enable-background="new 0 0 250 250" xml:space="preserve">
<g>
	<g>
		<path fill-rule="evenodd" clip-rule="evenodd" fill="#FFFFFF" d="M163.9,184.8c0.4-0.2,0.7-0.5,1.1-0.7
			C164.6,184.3,164.3,184.6,163.9,184.8z M83.6,53.3C44,76.2,30.4,126.9,53.3,166.5c22.9,39.6,73.6,53.2,113.2,30.3
			c39.6-22.9,53.2-73.6,30.3-113.2C174,44,123.3,30.4,83.6,53.3z M160.7,63.9c0-0.2,0-0.4,0-0.6c9.1,5.2,17.1,12.5,23.3,21.6
			c-3.3-2.1-7.8-3.3-13.3-3.5c-9.4-11-21.3-18.8-33.9-22.7C146.4,58.3,154.7,60,160.7,63.9z M81.2,122.1
			c-6.3,5.9-11.3,11.7-14.8,17.3c-4.6-13.9-5.3-28.1-2.3-40.7c3.4-4.6,7.6-9.2,12.5-13.5C75.1,95.6,76.6,108.5,81.2,122.1z
			 M78.6,83.4c4.5-3.8,9.5-7.4,15-10.6c3.5,6.8,8.9,16.8,15.5,28.6c-9.5,5.6-18,11.8-25,18C79.3,106.1,77.5,93.5,78.6,83.4z
			 M140.8,86.8c-9,3-18.5,7.3-28.2,12.7c-6.9-11.7-12.9-21.3-17-27.7c5.6-3.1,11.2-5.7,16.7-7.7C121.6,68.1,131.5,76,140.8,86.8z
			 M114.7,63.1c6.2-2.1,12.3-3.4,18-4.1c12.5,3.7,24.4,11.4,34.1,22.4c-6.6,0.2-14.2,1.6-22.4,4.1C135,74.8,124.5,67,114.7,63.1z
			 M112,106.6c3.5,6.2,7.2,12.8,11.2,19.6c4.7,8.1,9.2,15.8,13.4,22.8c-9.4,5.5-17.7,11.5-24.5,17.3c-6.2-6.7-12-14.7-17.2-23.7
			c-3.3-5.8-6.1-11.6-8.5-17.3C93.4,118.8,102.1,112.4,112,106.6z M127,123.9c-3.9-6.8-7.8-13.4-11.4-19.5
			c10-5.6,19.9-9.9,29.1-12.9c3.8,4.9,7.4,10.2,10.7,16c5.2,9,9.2,18.1,11.9,26.8c-8.5,3-17.8,7.2-27.3,12.6
			C136.1,139.8,131.7,132,127,123.9z M158.7,105.6c-3.2-5.5-6.6-10.6-10.3-15.2c8.4-2.4,16.2-3.7,22.7-3.6c2,2.7,3.9,5.5,5.6,8.4
			c6.4,11,9.9,22.8,10.8,34.2c-4.9,0.5-10.7,1.8-17,3.8C168,124.3,164,114.9,158.7,105.6z M134.3,54.4c-3.7,0.2-7.6,0.8-11.5,1.6
			c-10.8-0.9-21.5,1.1-31.3,6.2C105,54.9,120,52.5,134.3,54.4z M91.2,62.3c8.9-4.7,18.7-6.4,28.6-5.6c-4.2,1.1-8.6,2.5-12.9,4.2
			c-6.4-1.2-12.4-0.5-17.5,2.4c4.5-2.6,9.9-3,15.7-1.7c-4.1,1.7-8.2,3.7-12.3,6c-2-2.9-3.2-4.5-3.5-4.3c-0.3,0.2,0.5,2,2,5.2
			c-4,2.4-7.8,4.9-11.3,7.6c1.8-5.7,4.9-10.2,9.3-12.8c-5.1,2.9-8.7,7.8-10.8,13.9c-3.7,2.9-7.1,6-10.1,9.1
			c4.3-8.9,10.7-16.6,19.2-21.9c0.6-0.4,1.2-0.7,1.8-1.1C90,63,90.6,62.6,91.2,62.3z M87.5,64.5c-9.3,5.9-16.4,14.3-21.1,24
			c-2.7,3-5.1,6.1-7.2,9.2C64.8,84.4,74.4,72.6,87.5,64.5z M60.9,156c-4.8-10-7.1-20.6-7.1-31c0.2,0.1,0.4,0.2,0.6,0.3
			c-0.4-7.1,2.3-15.2,7.4-23.3c-2.9,12.9-2.1,27,2.7,40.7C62,147.6,60.7,152.1,60.9,156z M93.5,189c-11-5.4-20.8-13.8-27.9-24.7
			c-1.6-4.1-1-9.2,1.6-14.9c1.1,2.4,2.3,4.8,3.6,7.1c6.6,11.4,15.5,20.5,25.5,26.9C95,185.3,94.1,187.2,93.5,189z M73.5,154.9
			c-1.7-3-3.2-6-4.5-9.1c3.2-5.7,8.2-11.8,14.5-17.9c2.2,5.5,4.9,11,8,16.5c5.3,9.2,11.5,17.3,18,24.1c-4.9,4.5-9,8.8-11.8,12.8
			C88.2,174.8,79.8,165.9,73.5,154.9z M163.5,185.1c0.1-0.1,0.3-0.2,0.4-0.3c-1,0.7-2.1,1.4-3.2,2c-20,11.5-43.2,12.3-63,4.1
			c0.7-1.6,1.7-3.2,2.9-4.9c19.1,10.4,41.6,11.6,60.1,0.9c-17.9,10.3-40,8.5-58.8-2.7c2.8-3.8,6.7-7.8,11.3-11.9
			c16.6,15.5,34.9,21.8,47.5,14.6c-11.5,6.6-28.9-0.6-45.1-16.7c6.6-5.6,14.6-11.3,23.6-16.6c12,20.1,20.7,33.7,21.5,33.2
			c0.8-0.4-6.6-14.8-18-35.2c9.1-5.1,18-9.2,26.2-12.1c5.9,22.1,3.3,40.7-8.1,47.4c12.6-7.3,16.2-26.3,11.1-48.4
			c5.9-1.9,11.3-3.2,15.9-3.8c0.3,20.1-7.7,38.6-22.8,49.5c15.8-11.2,24.6-29.7,25.1-49.7c2.1-0.2,4-0.2,5.7,0
			C193.1,154.5,181.8,173.4,163.5,185.1z M196.2,129.6c-1.8-0.3-3.9-0.5-6.3-0.4c-0.5-11.9-4-24.2-10.6-35.6
			c-1.3-2.3-2.8-4.6-4.3-6.7c6.2,0.6,11,2.6,13.7,6.1C194.7,104.8,197,117.4,196.2,129.6z M125,0C56,0,0,56,0,125
			c0,69,56,125,125,125c69,0,125-56,125-125C250,56,194,0,125,0z M125,245.8C58.3,245.8,4.2,191.7,4.2,125
			C4.2,58.3,58.3,4.2,125,4.2c66.7,0,120.8,54.1,120.8,120.8C245.8,191.7,191.7,245.8,125,245.8z"/>
	</g>
</g>
</svg>
