<svg xmlns="http://www.w3.org/2000/svg" xmlns:xlink="http://www.w3.org/1999/xlink" preserveAspectRatio="xMidYMid" width="45" height="45" viewBox="0 0 45 45">
  <defs>
    <style>

      .cls-2 {
        fill: #ffffff;
        opacity: 0.9;
      }
    </style>
  </defs>
  <path d="M22.516,44.996 C10.089,44.996 0.016,34.925 0.016,22.500 C0.016,10.076 10.089,0.004 22.516,0.004 C34.942,0.004 45.016,10.076 45.016,22.500 C45.016,34.925 34.942,44.996 22.516,44.996 ZM22.516,1.996 C11.191,1.996 2.011,11.176 2.011,22.500 C2.011,33.824 11.191,43.004 22.516,43.004 C33.840,43.004 43.020,33.824 43.020,22.500 C43.020,11.176 33.840,1.996 22.516,1.996 ZM22.494,36.493 C14.763,36.493 8.495,30.226 8.495,22.494 C8.495,14.763 14.763,8.495 22.494,8.495 C30.226,8.495 36.494,14.763 36.494,22.494 C36.494,30.226 30.226,36.493 22.494,36.493 ZM28.890,24.827 C28.890,24.516 28.890,24.205 28.890,23.894 C28.267,23.894 27.645,23.894 27.023,23.894 C26.712,23.272 26.401,22.649 26.090,22.027 C25.467,22.027 24.845,22.027 24.223,22.027 C24.223,21.716 24.223,21.405 24.223,21.094 C20.235,19.346 20.055,22.593 18.623,17.360 C19.867,17.360 21.112,17.360 22.356,17.360 C23.270,14.145 25.482,14.283 27.023,11.760 C26.090,11.760 25.156,11.760 24.223,11.760 C23.396,13.210 22.854,13.717 21.423,14.560 C21.423,13.627 21.423,12.694 21.423,11.760 C20.179,11.760 18.934,11.760 17.690,11.760 C17.690,11.138 17.690,10.516 17.690,9.894 C17.690,9.894 15.823,11.760 15.823,11.760 C15.765,17.607 15.568,17.447 18.623,20.160 C18.623,20.471 18.623,20.783 18.623,21.094 C19.556,21.405 20.490,21.716 21.423,22.027 C21.112,22.649 20.801,23.272 20.490,23.894 C20.801,23.894 21.112,23.894 21.423,23.894 C21.734,25.138 22.045,26.383 22.356,27.627 C22.667,27.627 22.979,27.627 23.290,27.627 C23.290,29.494 23.290,31.361 23.290,33.227 C23.328,33.344 23.855,33.039 24.223,35.094 C24.845,35.094 25.467,35.094 26.090,35.094 C25.785,34.110 24.404,33.219 25.156,31.360 C25.467,31.360 25.779,31.360 26.090,31.360 C27.238,29.573 30.229,26.097 28.890,24.827 Z" id="path-1" class="cls-2" fill-rule="evenodd"/>
</svg>
