<svg xmlns="http://www.w3.org/2000/svg" xmlns:xlink="http://www.w3.org/1999/xlink" preserveAspectRatio="xMidYMid" width="45" height="45" viewBox="0 0 45 45">
  <defs>
    <style>

      .cls-2 {
        fill: #ffffff;
        opacity: 0.9;
      }
    </style>
  </defs>
  <path d="M22.516,44.996 C10.089,44.996 0.016,34.925 0.016,22.500 C0.016,10.076 10.089,0.004 22.516,0.004 C34.942,0.004 45.016,10.076 45.016,22.500 C45.016,34.925 34.942,44.996 22.516,44.996 ZM22.516,1.996 C11.191,1.996 2.011,11.176 2.011,22.500 C2.011,33.824 11.191,43.004 22.516,43.004 C33.840,43.004 43.020,33.824 43.020,22.500 C43.020,11.176 33.840,1.996 22.516,1.996 ZM23.088,36.368 C15.357,36.368 9.089,30.101 9.089,22.369 C9.089,17.171 11.928,12.645 16.134,10.230 C16.134,10.230 15.073,11.292 15.073,11.292 C15.015,17.139 14.818,16.978 17.873,19.692 C17.873,20.003 17.873,20.314 17.873,20.625 C18.806,20.936 19.740,21.247 20.673,21.558 C20.362,22.180 20.051,22.803 19.740,23.425 C20.051,23.425 20.362,23.425 20.673,23.425 C20.984,24.669 21.295,25.914 21.606,27.158 C21.917,27.158 22.229,27.158 22.540,27.158 C22.540,29.025 22.540,30.892 22.540,32.758 C22.578,32.875 23.105,32.571 23.473,34.625 C24.095,34.625 24.717,34.625 25.340,34.625 C25.035,33.642 23.654,32.750 24.406,30.892 C24.717,30.892 25.029,30.892 25.340,30.892 C26.488,29.104 29.479,25.628 28.140,24.358 C28.140,24.047 28.140,23.736 28.140,23.425 C27.517,23.425 26.895,23.425 26.273,23.425 C25.962,22.803 25.651,22.180 25.340,21.558 C24.717,21.558 24.095,21.558 23.473,21.558 C23.473,21.247 23.473,20.936 23.473,20.625 C19.485,18.877 19.305,22.124 17.873,16.892 C19.117,16.892 20.362,16.892 21.606,16.892 C22.520,13.677 24.732,13.814 26.273,11.292 C25.340,11.292 24.406,11.292 23.473,11.292 C22.646,12.741 22.104,13.248 20.673,14.092 C20.673,13.158 20.673,12.225 20.673,11.292 C19.429,11.292 18.184,11.292 16.940,11.292 C16.940,10.797 16.940,10.302 16.940,9.807 C18.798,8.896 20.879,8.370 23.088,8.370 C30.820,8.370 37.088,14.638 37.088,22.369 C37.088,30.101 30.820,36.368 23.088,36.368 ZM16.940,9.425 C16.940,9.552 16.940,9.680 16.940,9.807 C16.667,9.941 16.397,10.079 16.134,10.230 C16.134,10.230 16.940,9.425 16.940,9.425 Z" id="path-1" class="cls-2" fill-rule="evenodd"/>
</svg>
