<svg xmlns="http://www.w3.org/2000/svg" xmlns:xlink="http://www.w3.org/1999/xlink" preserveAspectRatio="xMidYMid" width="45" height="45" viewBox="0 0 45 45">
  <defs>
    <style>

      .cls-2 {
        fill: #ffffff;
        opacity: 0.9;
      }
    </style>
  </defs>
  <path d="M22.516,44.996 C10.089,44.996 0.016,34.925 0.016,22.500 C0.016,10.076 10.089,0.004 22.516,0.004 C34.942,0.004 45.016,10.076 45.016,22.500 C45.016,34.925 34.942,44.996 22.516,44.996 ZM22.516,1.996 C11.191,1.996 2.011,11.176 2.011,22.500 C2.011,33.824 11.191,43.004 22.516,43.004 C33.840,43.004 43.020,33.824 43.020,22.500 C43.020,11.176 33.840,1.996 22.516,1.996 ZM7.985,35.016 C7.985,35.016 36.973,35.016 36.973,35.016 C36.973,35.016 36.973,35.944 36.973,35.944 C36.973,35.944 7.985,35.944 7.985,35.944 C7.985,35.944 7.985,35.016 7.985,35.016 ZM22.275,13.602 C27.529,13.602 31.787,17.861 31.787,23.114 C31.787,28.367 27.529,32.625 22.275,32.625 C17.022,32.625 12.764,28.367 12.764,23.114 C12.764,17.861 17.022,13.602 22.275,13.602 ZM22.275,30.599 C26.410,30.599 29.761,27.248 29.761,23.113 C29.761,18.979 26.410,15.628 22.275,15.628 C18.141,15.628 14.790,18.979 14.790,23.113 C14.790,27.248 18.141,30.599 22.275,30.599 ZM22.277,12.473 C19.166,12.473 16.376,13.816 14.430,15.944 C14.430,15.944 7.985,15.944 7.985,15.944 C7.985,15.944 7.985,11.016 7.985,11.016 C7.985,11.016 36.973,11.016 36.973,11.016 C36.973,11.016 36.973,15.944 36.973,15.944 C36.973,15.944 30.123,15.944 30.123,15.944 C28.177,13.816 25.387,12.473 22.277,12.473 ZM9.999,8.980 C9.999,8.980 15.022,8.980 15.022,8.980 C15.022,8.980 15.022,10.492 15.022,10.492 C15.022,10.492 9.999,10.492 9.999,10.492 C9.999,10.492 9.999,8.980 9.999,8.980 Z" id="path-1" class="cls-2" fill-rule="evenodd"/>
</svg>
