<svg xmlns="http://www.w3.org/2000/svg" xmlns:xlink="http://www.w3.org/1999/xlink" preserveAspectRatio="xMidYMid" width="90" height="90" viewBox="0 0 90 90">
  <defs>
    <style>

      .cls-2 {
        fill: #ffffff;
      }
    </style>
  </defs>
  <path d="M44.999,90.006 C20.145,90.006 -0.001,69.858 -0.001,45.005 C-0.001,20.152 20.145,0.005 44.999,0.005 C69.852,0.005 90.000,20.152 90.000,45.005 C90.000,69.858 69.852,90.006 44.999,90.006 ZM44.999,1.993 C21.243,1.993 1.986,21.250 1.986,45.005 C1.986,68.760 21.243,88.018 44.999,88.018 C68.754,88.018 88.011,68.760 88.011,45.005 C88.011,21.250 68.754,1.993 44.999,1.993 ZM67.967,64.802 C67.967,64.802 22.037,64.802 22.037,64.802 C18.673,64.802 15.945,62.074 15.945,58.710 C15.945,58.710 15.945,31.308 15.945,31.308 C15.945,27.944 18.673,25.217 22.037,25.217 C22.037,25.217 26.508,25.217 26.508,25.217 C26.423,24.987 26.369,24.741 26.369,24.482 C26.369,23.315 27.316,22.369 28.482,22.369 C29.649,22.369 30.595,23.315 30.595,24.482 C30.595,24.741 30.542,24.987 30.456,25.217 C30.456,25.217 67.967,25.217 67.967,25.217 C71.332,25.217 74.060,27.944 74.060,31.308 C74.060,31.308 74.060,58.710 74.060,58.710 C74.060,62.074 71.332,64.802 67.967,64.802 ZM45.004,27.483 C35.328,27.483 27.485,35.327 27.485,45.002 C27.485,54.678 35.328,62.521 45.004,62.521 C54.679,62.521 62.523,54.678 62.523,45.002 C62.523,35.327 54.679,27.483 45.004,27.483 ZM64.496,33.043 C63.691,33.043 63.040,33.695 63.040,34.499 C63.040,35.303 63.691,35.955 64.496,35.955 C65.299,35.955 65.951,35.303 65.951,34.499 C65.951,33.695 65.299,33.043 64.496,33.043 ZM45.002,61.163 C36.075,61.163 28.838,53.927 28.838,45.000 C28.838,36.073 36.075,28.836 45.002,28.836 C53.928,28.836 61.165,36.073 61.165,45.000 C61.165,53.927 53.928,61.163 45.002,61.163 ZM45.001,34.830 C39.424,34.830 34.902,39.352 34.902,44.930 C34.902,50.507 39.424,55.029 45.001,55.029 C50.579,55.029 55.100,50.507 55.100,44.930 C55.100,39.352 50.579,34.830 45.001,34.830 Z" id="path-1" class="cls-2" fill-rule="evenodd"/>
</svg>
