<?xml version="1.0" encoding="utf-8"?>
<!-- Generator: Adobe Illustrator 18.0.0, SVG Export Plug-In . SVG Version: 6.00 Build 0)  -->
<!DOCTYPE svg PUBLIC "-//W3C//DTD SVG 1.1//EN" "http://www.w3.org/Graphics/SVG/1.1/DTD/svg11.dtd">
<svg version="1.1" id="Layer_1" xmlns="http://www.w3.org/2000/svg" xmlns:xlink="http://www.w3.org/1999/xlink" x="0px" y="0px"
	 viewBox="0 0 250 250" enable-background="new 0 0 250 250" xml:space="preserve">
<g>
	<g>
		<path fill-rule="evenodd" clip-rule="evenodd" fill="#FFFFFF" d="M188.9,70H84.7c0.2-0.6,0.4-1.3,0.4-2c0-3.2-2.6-5.9-5.9-5.9
			c-3.2,0-5.9,2.6-5.9,5.9c0,0.7,0.1,1.4,0.4,2H61.3c-9.3,0-16.9,7.6-16.9,16.9v76.1c0,9.3,7.6,16.9,16.9,16.9h127.6
			c9.3,0,16.9-7.6,16.9-16.9V86.9C205.8,77.6,198.2,70,188.9,70z M125.1,173.7c-26.9,0-48.7-21.8-48.7-48.7s21.8-48.7,48.7-48.7
			c26.9,0,48.7,21.8,48.7,48.7S151.9,173.7,125.1,173.7z M179.2,99.9c-2.2,0-4-1.8-4-4c0-2.2,1.8-4,4-4c2.2,0,4,1.8,4,4
			C183.3,98,181.4,99.9,179.2,99.9z M125.1,80.1c-24.8,0-44.9,20.1-44.9,44.9c0,24.8,20.1,44.9,44.9,44.9
			c24.8,0,44.9-20.1,44.9-44.9C170,100.2,149.9,80.1,125.1,80.1z M125,152.8c-15.5,0-28.1-12.6-28.1-28.1
			c0-15.5,12.6-28.1,28.1-28.1s28.1,12.6,28.1,28.1C153.1,140.3,140.5,152.8,125,152.8z M125,0C56,0,0,56,0,125c0,69,56,125,125,125
			c69,0,125-56,125-125C250,56,194,0,125,0z M125,245.8C58.3,245.8,4.2,191.7,4.2,125C4.2,58.3,58.3,4.2,125,4.2
			c66.7,0,120.8,54.1,120.8,120.8C245.8,191.7,191.7,245.8,125,245.8z"/>
	</g>
</g>
</svg>
