<?xml version="1.0" encoding="utf-8"?>
<!-- Generator: Adobe Illustrator 18.0.0, SVG Export Plug-In . SVG Version: 6.00 Build 0)  -->
<!DOCTYPE svg PUBLIC "-//W3C//DTD SVG 1.1//EN" "http://www.w3.org/Graphics/SVG/1.1/DTD/svg11.dtd">
<svg version="1.1" id="Layer_1" xmlns="http://www.w3.org/2000/svg" xmlns:xlink="http://www.w3.org/1999/xlink" x="0px" y="0px"
	 viewBox="0 0 250 250" enable-background="new 0 0 250 250" xml:space="preserve">
<g>
	<g>
		<path fill-rule="evenodd" clip-rule="evenodd" fill="#FFFFFF" d="M201.8,48c-1.6-1.6-3.3-3-5.2-4.2l-69.4,69.4
			c-1.6-0.3-3.2-0.3-4.7,0.1L97.9,88.7v0L81.7,72.5c-1.7,1.1-3.4,2.5-4.9,4c-1.5,1.5-2.9,3.2-4,5l14.5,14.5l0,0l26.2,26.2
			c-0.5,2-0.5,4.1,0.1,6l-83.7,30.5c0.1,0.3,0.2,0.7,0.3,1c0.1,0.3,0.3,0.6,0.4,1l83.7-30.5c1,2.2,2.6,4,4.9,5.3
			c5.7,3.3,13.1,1.3,16.4-4.4c1.6-2.7,1.9-5.8,1.3-8.6l0.8-0.8l10.8-3.9l-0.7-2l-6.6,2.4l49.9-49.9l0,0L206,53.1
			C204.8,51.3,203.4,49.6,201.8,48z M125,0C56,0,0,56,0,125c0,69,56,125,125,125c69,0,125-56,125-125C250,56,194,0,125,0z
			 M125,245.8C58.3,245.8,4.2,191.7,4.2,125C4.2,58.3,58.3,4.2,125,4.2c66.7,0,120.8,54.1,120.8,120.8
			C245.8,191.7,191.7,245.8,125,245.8z"/>
	</g>
</g>
</svg>
