<svg xmlns="http://www.w3.org/2000/svg" xmlns:xlink="http://www.w3.org/1999/xlink" preserveAspectRatio="xMidYMid" width="45" height="45" viewBox="0 0 45 45">
  <defs>
    <style>

      .cls-2 {
        fill: #ffffff;
        opacity: 0.9;
      }
    </style>
  </defs>
  <path d="M22.516,44.996 C10.089,44.996 0.016,34.925 0.016,22.500 C0.016,10.076 10.089,0.004 22.516,0.004 C34.942,0.004 45.016,10.076 45.016,22.500 C45.016,34.925 34.942,44.996 22.516,44.996 ZM22.516,1.996 C11.191,1.996 2.011,11.176 2.011,22.500 C2.011,33.824 11.191,43.004 22.516,43.004 C33.840,43.004 43.020,33.824 43.020,22.500 C43.020,11.176 33.840,1.996 22.516,1.996 ZM31.861,14.915 C31.861,14.915 24.840,21.936 24.840,21.936 C24.840,21.936 25.766,21.599 25.766,21.599 C25.766,21.599 25.868,21.878 25.868,21.878 C25.868,21.878 24.343,22.433 24.343,22.433 C24.343,22.433 24.225,22.551 24.225,22.551 C24.313,22.949 24.271,23.378 24.051,23.759 C23.585,24.567 22.552,24.843 21.744,24.377 C21.429,24.195 21.211,23.926 21.081,23.620 C21.081,23.620 9.287,27.913 9.287,27.913 C9.269,27.866 9.246,27.823 9.229,27.776 C9.212,27.729 9.202,27.681 9.185,27.634 C9.185,27.634 21.004,23.332 21.004,23.332 C20.947,23.077 20.929,22.811 20.992,22.546 C20.992,22.546 17.265,18.819 17.265,18.819 C17.265,18.819 17.265,18.819 17.265,18.819 C17.265,18.819 15.228,16.782 15.228,16.782 C15.281,16.699 15.356,16.628 15.416,16.549 C15.416,16.549 15.360,16.494 15.360,16.494 C15.463,16.335 15.584,16.185 15.722,16.047 C15.860,15.909 16.010,15.789 16.167,15.686 C16.167,15.686 16.219,15.738 16.219,15.738 C16.310,15.668 16.393,15.582 16.488,15.520 C16.488,15.520 18.773,17.805 18.773,17.805 C18.773,17.805 18.773,17.805 18.773,17.805 C18.773,17.805 22.253,21.286 22.253,21.286 C22.461,21.245 22.673,21.229 22.886,21.267 C22.886,21.267 30.550,13.603 30.550,13.603 C30.550,13.603 30.550,13.603 30.550,13.603 C30.550,13.603 31.943,12.210 31.943,12.210 C32.407,12.615 32.840,13.058 33.251,13.525 C33.251,13.525 31.861,14.915 31.861,14.915 C31.861,14.915 31.861,14.915 31.861,14.915 Z" id="path-1" class="cls-2" fill-rule="evenodd"/>
</svg>
