<svg xmlns="http://www.w3.org/2000/svg" xmlns:xlink="http://www.w3.org/1999/xlink" preserveAspectRatio="xMidYMid" width="90" height="90" viewBox="0 0 90 90">
  <defs>
    <style>

      .cls-2 {
        fill: #ffffff;
      }
    </style>
  </defs>
  <path d="M44.999,90.006 C20.145,90.006 -0.001,69.858 -0.001,45.005 C-0.001,20.152 20.145,0.005 44.999,0.005 C69.852,0.005 90.000,20.152 90.000,45.005 C90.000,69.858 69.852,90.006 44.999,90.006 ZM44.999,1.993 C21.243,1.993 1.986,21.250 1.986,45.005 C1.986,68.760 21.243,88.018 44.999,88.018 C68.754,88.018 88.011,68.760 88.011,45.005 C88.011,34.612 84.325,25.080 78.189,17.644 C70.453,25.073 62.203,32.495 53.490,39.806 C50.901,41.979 48.309,44.108 45.717,46.197 C45.714,46.194 45.711,46.190 45.707,46.187 C45.503,46.310 45.267,46.384 45.012,46.387 C45.012,46.387 36.513,77.688 36.513,77.688 C36.346,77.644 36.183,77.593 36.017,77.547 C36.017,77.547 44.311,46.178 44.311,46.178 C44.163,46.083 44.029,45.966 43.923,45.825 C43.913,45.833 43.904,45.843 43.894,45.852 C41.591,43.635 39.291,41.380 36.997,39.086 C32.582,34.670 28.322,30.234 24.197,25.794 C24.438,25.512 24.688,25.236 24.954,24.969 C25.221,24.703 25.497,24.454 25.778,24.213 C30.218,28.337 34.655,32.597 39.070,37.012 C41.110,39.052 43.107,41.097 45.085,43.144 C45.097,43.134 45.109,43.124 45.121,43.114 C45.121,43.114 46.945,36.213 46.945,36.213 C47.076,36.245 47.207,36.262 47.337,36.297 C47.468,36.332 47.589,36.383 47.719,36.420 C47.719,36.420 46.138,42.243 46.138,42.243 C47.944,40.678 49.753,39.114 51.606,37.560 C60.315,30.251 69.054,23.418 77.710,17.092 C69.821,7.855 58.098,1.993 44.999,1.993 Z" id="path-1" class="cls-2" fill-rule="evenodd"/>
</svg>
