<svg xmlns="http://www.w3.org/2000/svg" xmlns:xlink="http://www.w3.org/1999/xlink" preserveAspectRatio="xMidYMid" width="45" height="45" viewBox="0 0 45 45">
  <defs>
    <style>

      .cls-2 {
        fill: #fff6ef;
        opacity: 0.9;
      }
    </style>
  </defs>
  <path d="M22.516,44.996 C10.089,44.996 0.016,34.925 0.016,22.500 C0.016,10.076 10.089,0.004 22.516,0.004 C34.942,0.004 45.016,10.076 45.016,22.500 C45.016,34.925 34.942,44.996 22.516,44.996 ZM22.516,1.996 C11.191,1.996 2.011,11.176 2.011,22.500 C2.011,33.824 11.191,43.004 22.516,43.004 C33.840,43.004 43.020,33.824 43.020,22.500 C43.020,11.176 33.840,1.996 22.516,1.996 ZM33.615,33.429 C30.883,36.866 26.674,39.076 21.943,39.076 C17.211,39.076 13.002,36.866 10.270,33.429 C10.127,32.643 9.980,31.864 9.856,31.046 C9.856,31.046 9.898,31.046 9.898,31.046 C9.892,30.937 9.886,30.828 9.886,30.718 C9.886,27.464 12.534,24.643 16.406,23.242 C16.406,23.242 21.662,28.498 21.662,28.498 C21.662,28.498 22.224,28.502 22.224,28.502 C22.224,28.502 27.482,23.243 27.482,23.243 C31.353,24.644 33.999,27.465 33.999,30.718 C33.999,30.828 33.993,30.937 33.987,31.046 C33.987,31.046 34.029,31.046 34.029,31.046 C33.905,31.864 33.758,32.643 33.615,33.429 ZM21.943,22.078 C18.269,22.078 15.291,19.100 15.291,15.426 C15.291,11.752 18.269,8.774 21.943,8.774 C25.616,8.774 28.594,11.752 28.594,15.426 C28.594,19.100 25.616,22.078 21.943,22.078 Z" id="path-1" class="cls-2" fill-rule="evenodd"/>
</svg>
