<svg xmlns="http://www.w3.org/2000/svg" xmlns:xlink="http://www.w3.org/1999/xlink" preserveAspectRatio="xMidYMid" width="45" height="45" viewBox="0 0 45 45">
  <defs>
    <style>

      .cls-2 {
        fill: #fff6ef;
        opacity: 0.9;
      }
    </style>
  </defs>
  <path d="M22.516,44.996 C10.089,44.996 0.016,34.925 0.016,22.500 C0.016,10.076 10.089,0.004 22.516,0.004 C34.942,0.004 45.016,10.076 45.016,22.500 C45.016,34.925 34.942,44.996 22.516,44.996 ZM22.516,1.996 C11.191,1.996 2.011,11.176 2.011,22.500 C2.011,33.824 11.191,43.004 22.516,43.004 C33.840,43.004 43.020,33.824 43.020,22.500 C43.020,11.176 33.840,1.996 22.516,1.996 ZM34.240,33.429 C31.508,36.866 27.299,39.076 22.568,39.076 C17.836,39.076 13.627,36.866 10.895,33.429 C10.752,32.643 10.605,31.864 10.481,31.046 C10.481,31.046 10.523,31.046 10.523,31.046 C10.517,30.937 10.511,30.828 10.511,30.718 C10.511,27.464 13.159,24.643 17.031,23.242 C17.031,23.242 22.287,28.498 22.287,28.498 C22.287,28.498 22.849,28.502 22.849,28.502 C22.849,28.502 28.107,23.243 28.107,23.243 C31.978,24.644 34.624,27.465 34.624,30.718 C34.624,30.828 34.618,30.937 34.612,31.046 C34.612,31.046 34.654,31.046 34.654,31.046 C34.530,31.864 34.383,32.643 34.240,33.429 ZM22.568,22.078 C18.894,22.078 15.916,19.100 15.916,15.426 C15.916,11.752 18.894,8.774 22.568,8.774 C26.241,8.774 29.219,11.752 29.219,15.426 C29.219,19.100 26.241,22.078 22.568,22.078 Z" id="path-1" class="cls-2" fill-rule="evenodd"/>
</svg>
