<svg xmlns="http://www.w3.org/2000/svg" xmlns:xlink="http://www.w3.org/1999/xlink" preserveAspectRatio="xMidYMid" width="90" height="90" viewBox="0 0 90 90">
  <defs>
    <style>

      .cls-2 {
        fill: #ffffff;
      }
    </style>
  </defs>
  <path d="M44.999,90.006 C20.145,90.006 -0.001,69.858 -0.001,45.005 C-0.001,20.152 20.145,0.005 44.999,0.005 C69.852,0.005 90.000,20.152 90.000,45.005 C90.000,69.858 69.852,90.006 44.999,90.006 ZM44.999,1.993 C21.243,1.993 1.986,21.250 1.986,45.005 C1.986,68.760 21.243,88.018 44.999,88.018 C68.754,88.018 88.011,68.760 88.011,45.005 C88.011,21.250 68.754,1.993 44.999,1.993 ZM68.073,67.107 C62.609,73.995 54.173,78.418 44.699,78.418 C35.224,78.418 26.788,73.995 21.325,67.107 C21.043,65.551 20.772,63.976 20.526,62.358 C20.526,62.358 20.610,62.358 20.610,62.358 C20.599,62.140 20.586,61.922 20.586,61.702 C20.586,55.193 25.881,49.551 33.626,46.750 C33.626,46.750 44.137,57.262 44.137,57.262 C44.137,57.262 45.260,57.270 45.260,57.270 C45.260,57.270 55.778,46.752 55.778,46.752 C63.519,49.554 68.811,55.195 68.811,61.702 C68.811,61.922 68.799,62.140 68.788,62.358 C68.788,62.358 68.871,62.358 68.871,62.358 C68.626,63.976 68.355,65.552 68.073,67.107 ZM44.699,44.422 C37.351,44.422 31.396,38.466 31.396,31.119 C31.396,23.771 37.351,17.815 44.699,17.815 C52.046,17.815 58.002,23.771 58.002,31.119 C58.002,38.466 52.046,44.422 44.699,44.422 Z" id="path-1" class="cls-2" fill-rule="evenodd"/>
</svg>
