<?xml version="1.0" encoding="utf-8"?>
<!-- Generator: Adobe Illustrator 18.0.0, SVG Export Plug-In . SVG Version: 6.00 Build 0)  -->
<!DOCTYPE svg PUBLIC "-//W3C//DTD SVG 1.1//EN" "http://www.w3.org/Graphics/SVG/1.1/DTD/svg11.dtd">
<svg version="1.1" id="Layer_1" xmlns="http://www.w3.org/2000/svg" xmlns:xlink="http://www.w3.org/1999/xlink" x="0px" y="0px"
	 viewBox="0 0 250 250" enable-background="new 0 0 250 250" xml:space="preserve">
<g>
	<g>
		<path fill-rule="evenodd" clip-rule="evenodd" fill="#FFFFFF" d="M125,0C56,0,0,56,0,125c0,69,56,125,125,125c69,0,125-56,125-125
			C250,56,194,0,125,0z M125,245.8C58.3,245.8,4.2,191.7,4.2,125C4.2,58.3,58.3,4.2,125,4.2c66.7,0,120.8,54.1,120.8,120.8
			C245.8,191.7,191.7,245.8,125,245.8z M124.2,123.4c20.4,0,37-16.5,37-37c0-20.4-16.5-37-37-37c-20.4,0-37,16.5-37,37
			C87.3,106.9,103.8,123.4,124.2,123.4z M191.2,171.4c0-18.1-14.7-33.8-36.2-41.5l-29.2,29.2l-3.1,0l-29.2-29.2
			c-21.5,7.8-36.2,23.5-36.2,41.5c0,0.6,0,1.2,0.1,1.8h-0.2c0.7,4.5,1.5,8.9,2.3,13.2c15.2,19.1,38.6,31.4,64.9,31.4
			c26.3,0,49.7-12.3,64.9-31.4c0.8-4.4,1.6-8.7,2.3-13.2h-0.2C191.2,172.6,191.2,172,191.2,171.4z"/>
	</g>
</g>
</svg>
