<?xml version="1.0" encoding="utf-8"?>
<!-- Generator: Adobe Illustrator 18.1.1, SVG Export Plug-In . SVG Version: 6.00 Build 0)  -->
<svg version="1.1" id="Layer_1" xmlns="http://www.w3.org/2000/svg" xmlns:xlink="http://www.w3.org/1999/xlink" x="0px" y="0px"
	 viewBox="0 0 250 250" enable-background="new 0 0 250 250" xml:space="preserve">
<g>
	<g>
		<path fill-rule="evenodd" clip-rule="evenodd" fill="#FFFFFF" d="M221.8,128.9c-0.1-0.1-0.3-0.2-0.4-0.4c-6.7,6.3-13.7,13-20.8,20
			V75.9c0-4.2-3.4-7.6-7.6-7.6H82.6c7.3-7.5,14.3-14.7,20.9-21.7c-0.1-0.1-0.2-0.3-0.4-0.4c-0.1-0.1-0.3-0.2-0.4-0.4
			C90.8,57.2,78,69.6,64.8,82.7c-13.2,13.2-25.6,26-36.9,37.9c0.1,0.1,0.2,0.3,0.4,0.4c0.1,0.1,0.3,0.2,0.4,0.4
			c6.7-6.3,13.7-13,20.8-20v72.7c0,4.2,3.4,7.6,7.6,7.6h110.4c-7.3,7.5-14.3,14.7-20.8,21.7c0.1,0.1,0.2,0.3,0.4,0.4
			c0.1,0.1,0.3,0.2,0.4,0.4c11.9-11.3,24.7-23.7,37.9-36.9c13.2-13.2,25.6-26,36.9-37.9C222,129.2,221.9,129.1,221.8,128.9z
			 M96.1,130.5c-8.9,0-16.1-7.2-16.1-16.1c0-8.9,7.2-16.1,16.1-16.1s16.1,7.2,16.1,16.1C112.2,123.2,105,130.5,96.1,130.5z M125,0
			C56,0,0,56,0,125s56,125,125,125c69,0,125-56,125-125S194,0,125,0z M125,245.8C58.3,245.8,4.2,191.7,4.2,125
			C4.2,58.3,58.3,4.2,125,4.2c66.7,0,120.8,54.1,120.8,120.8C245.8,191.7,191.7,245.8,125,245.8z"/>
	</g>
</g>
</svg>
