<svg xmlns="http://www.w3.org/2000/svg" xmlns:xlink="http://www.w3.org/1999/xlink" preserveAspectRatio="xMidYMid" width="45" height="45" viewBox="0 0 45 45">
  <defs>
    <style>

      .cls-2 {
        fill: #ffffff;
        opacity: 0.9;
      }
    </style>
  </defs>
  <path d="M22.516,44.996 C10.089,44.996 0.016,34.925 0.016,22.500 C0.016,10.076 10.089,0.004 22.516,0.004 C34.942,0.004 45.016,10.076 45.016,22.500 C45.016,34.925 34.942,44.996 22.516,44.996 ZM22.516,1.996 C11.191,1.996 2.011,11.176 2.011,22.500 C2.011,33.824 11.191,43.004 22.516,43.004 C33.840,43.004 43.020,33.824 43.020,22.500 C43.020,11.176 33.840,1.996 22.516,1.996 ZM33.597,30.432 C31.278,32.752 29.027,34.937 26.926,36.921 C26.903,36.901 26.881,36.880 26.859,36.858 C26.837,36.836 26.817,36.814 26.796,36.791 C27.952,35.567 29.192,34.282 30.471,32.973 C30.471,32.973 11.346,32.973 11.346,32.973 C10.612,32.973 10.017,32.378 10.017,31.644 C10.017,31.644 10.017,18.670 10.017,18.670 C10.017,18.670 15.658,13.029 15.658,13.029 C15.658,13.029 34.654,13.029 34.654,13.029 C35.388,13.029 35.983,13.624 35.983,14.358 C35.983,14.358 35.983,27.332 35.983,27.332 C35.983,27.332 34.241,29.177 34.241,29.177 C36.218,27.215 38.148,25.338 39.955,23.632 C39.978,23.652 40.000,23.673 40.022,23.695 C40.044,23.717 40.065,23.739 40.085,23.762 C38.102,25.863 35.916,28.113 33.597,30.432 ZM18.015,17.786 C16.013,17.786 14.389,19.409 14.389,21.411 C14.389,23.413 16.013,25.036 18.015,25.036 C20.016,25.036 21.640,23.413 21.640,21.411 C21.640,19.409 20.016,17.786 18.015,17.786 ZM6.043,22.367 C6.020,22.347 5.998,22.326 5.976,22.304 C5.954,22.282 5.933,22.260 5.913,22.237 C7.896,20.136 10.082,17.886 12.402,15.566 C14.721,13.247 16.971,11.061 19.072,9.078 C19.095,9.098 19.117,9.119 19.139,9.141 C19.161,9.163 19.182,9.185 19.202,9.208 C17.219,11.309 15.033,13.559 12.714,15.879 C10.395,18.198 8.144,20.384 6.043,22.367 Z" id="path-1" class="cls-2" fill-rule="evenodd"/>
</svg>
