<svg xmlns="http://www.w3.org/2000/svg" xmlns:xlink="http://www.w3.org/1999/xlink" preserveAspectRatio="xMidYMid" width="45" height="45" viewBox="0 0 45 45">
  <defs>
    <style>

      .cls-2 {
        fill: #ffffff;
        opacity: 0.9;
      }
    </style>
  </defs>
  <path d="M22.516,44.996 C10.089,44.996 0.016,34.925 0.016,22.500 C0.016,10.076 10.089,0.004 22.516,0.004 C34.942,0.004 45.016,10.076 45.016,22.500 C45.016,34.925 34.942,44.996 22.516,44.996 ZM22.516,1.996 C11.191,1.996 2.011,11.176 2.011,22.500 C2.011,33.824 11.191,43.004 22.516,43.004 C33.840,43.004 43.020,33.824 43.020,22.500 C43.020,11.176 33.840,1.996 22.516,1.996 ZM32.097,28.932 C29.778,31.252 27.527,33.437 25.426,35.421 C25.403,35.401 25.381,35.380 25.359,35.358 C25.337,35.336 25.317,35.314 25.296,35.291 C26.452,34.067 27.692,32.782 28.971,31.473 C28.971,31.473 9.846,31.473 9.846,31.473 C9.112,31.473 8.517,30.878 8.517,30.144 C8.517,30.144 8.517,17.170 8.517,17.170 C8.517,17.170 14.158,11.529 14.158,11.529 C14.158,11.529 33.154,11.529 33.154,11.529 C33.888,11.529 34.483,12.124 34.483,12.858 C34.483,12.858 34.483,25.832 34.483,25.832 C34.483,25.832 32.741,27.677 32.741,27.677 C34.718,25.715 36.648,23.838 38.455,22.132 C38.478,22.152 38.500,22.173 38.522,22.195 C38.544,22.217 38.565,22.239 38.585,22.262 C36.602,24.363 34.416,26.613 32.097,28.932 ZM16.515,16.286 C14.513,16.286 12.889,17.909 12.889,19.911 C12.889,21.913 14.513,23.536 16.515,23.536 C18.516,23.536 20.140,21.913 20.140,19.911 C20.140,17.909 18.516,16.286 16.515,16.286 ZM4.543,20.867 C4.520,20.847 4.498,20.826 4.476,20.804 C4.454,20.782 4.433,20.760 4.413,20.737 C6.396,18.636 8.582,16.386 10.902,14.066 C13.221,11.747 15.471,9.561 17.572,7.578 C17.595,7.598 17.617,7.619 17.639,7.641 C17.661,7.663 17.682,7.685 17.702,7.708 C15.719,9.809 13.533,12.059 11.214,14.379 C8.895,16.698 6.644,18.884 4.543,20.867 Z" id="path-1" class="cls-2" fill-rule="evenodd"/>
</svg>
