<svg xmlns="http://www.w3.org/2000/svg" xmlns:xlink="http://www.w3.org/1999/xlink" preserveAspectRatio="xMidYMid" width="90" height="90" viewBox="0 0 90 90">
  <defs>
    <style>

      .cls-2 {
        fill: #ffffff;
      }
    </style>
  </defs>
  <path d="M44.999,90.006 C20.145,90.006 -0.001,69.858 -0.001,45.005 C-0.001,20.152 20.145,0.005 44.999,0.005 C69.852,0.005 90.000,20.152 90.000,45.005 C90.000,69.858 69.852,90.006 44.999,90.006 ZM44.999,1.993 C21.243,1.993 1.986,21.250 1.986,45.005 C1.986,68.760 21.243,88.018 44.999,88.018 C68.754,88.018 88.011,68.760 88.011,45.005 C88.011,21.250 68.754,1.993 44.999,1.993 ZM66.675,60.203 C61.931,64.947 57.328,69.417 53.031,73.474 C52.984,73.432 52.938,73.390 52.893,73.345 C52.849,73.301 52.806,73.255 52.765,73.208 C55.131,70.701 57.652,68.081 60.273,65.399 C60.273,65.399 20.525,65.399 20.525,65.399 C19.024,65.399 17.807,64.182 17.807,62.681 C17.807,62.681 17.807,36.512 17.807,36.512 C15.237,39.020 12.726,41.434 10.319,43.707 C10.272,43.665 10.226,43.622 10.181,43.578 C10.137,43.533 10.094,43.488 10.052,43.441 C14.109,39.143 18.579,34.541 23.323,29.797 C28.067,25.053 32.669,20.583 36.966,16.527 C37.013,16.568 37.059,16.611 37.103,16.656 C37.148,16.700 37.191,16.746 37.233,16.793 C34.864,19.302 32.341,21.924 29.718,24.608 C29.718,24.608 69.476,24.608 69.476,24.608 C70.978,24.608 72.194,25.825 72.194,27.326 C72.194,27.326 72.194,53.484 72.194,53.484 C74.763,50.978 77.272,48.565 79.678,46.294 C79.726,46.335 79.771,46.378 79.816,46.423 C79.860,46.467 79.903,46.513 79.945,46.560 C75.889,50.857 71.418,55.460 66.675,60.203 ZM34.581,35.362 C31.376,35.362 28.778,37.960 28.778,41.164 C28.778,44.370 31.376,46.967 34.581,46.967 C37.786,46.967 40.384,44.370 40.384,41.164 C40.384,37.960 37.786,35.362 34.581,35.362 Z" id="path-1" class="cls-2" fill-rule="evenodd"/>
</svg>
