<svg xmlns="http://www.w3.org/2000/svg" xmlns:xlink="http://www.w3.org/1999/xlink" preserveAspectRatio="xMidYMid" width="45" height="45" viewBox="0 0 45 45">
  <defs>
    <style>

      .cls-2 {
        fill: #ffffff;
        opacity: 0.9;
      }
    </style>
  </defs>
  <path d="M22.516,44.996 C10.089,44.996 0.016,34.925 0.016,22.500 C0.016,10.076 10.089,0.004 22.516,0.004 C34.942,0.004 45.016,10.076 45.016,22.500 C45.016,34.925 34.942,44.996 22.516,44.996 ZM22.516,1.996 C11.191,1.996 2.011,11.176 2.011,22.500 C2.011,33.824 11.191,43.004 22.516,43.004 C33.840,43.004 43.020,33.824 43.020,22.500 C43.020,11.176 33.840,1.996 22.516,1.996 ZM29.610,27.280 C29.610,27.826 29.494,28.353 29.282,28.848 C29.282,28.848 23.518,28.848 23.518,28.848 C23.518,28.895 23.518,28.941 23.518,28.987 C23.518,35.251 23.097,40.329 22.577,40.329 C22.057,40.329 21.636,35.251 21.636,28.987 C21.636,28.941 21.636,28.895 21.636,28.848 C21.636,28.848 15.872,28.848 15.872,28.848 C15.661,28.353 15.545,27.826 15.545,27.280 C15.545,25.744 16.445,24.364 17.876,23.412 C17.932,20.320 18.040,17.352 18.196,14.566 C16.779,13.713 15.827,12.456 15.659,11.033 C15.659,11.033 29.495,11.033 29.495,11.033 C29.326,12.458 28.373,13.716 26.954,14.568 C27.110,17.352 27.218,20.319 27.273,23.409 C28.707,24.361 29.610,25.742 29.610,27.280 Z" id="path-1" class="cls-2" fill-rule="evenodd"/>
</svg>
