<svg xmlns="http://www.w3.org/2000/svg" xmlns:xlink="http://www.w3.org/1999/xlink" preserveAspectRatio="xMidYMid" width="46" height="45" viewBox="0 0 46 45">
  <defs>
    <style>

      .cls-2 {
        fill: #ffffff;
        opacity: 0.9;
      }
    </style>
  </defs>
  <path d="M38.394,38.379 C29.609,47.164 15.364,47.163 6.577,38.376 C-2.210,29.589 -2.211,15.344 6.574,6.559 C15.360,-2.227 29.605,-2.226 38.392,6.561 C47.179,15.348 47.180,29.593 38.394,38.379 ZM36.983,7.970 C28.976,-0.038 15.993,-0.038 7.985,7.970 C-0.022,15.977 -0.022,28.960 7.986,36.968 C15.993,44.975 28.976,44.975 36.983,36.968 C44.991,28.960 44.991,15.978 36.983,7.970 ZM35.987,23.942 C35.987,23.942 23.980,23.942 23.980,23.942 C23.980,23.942 23.980,35.949 23.980,35.949 C23.980,35.949 21.011,35.949 21.011,35.949 C21.011,35.949 21.011,23.942 21.011,23.942 C21.011,23.942 8.940,23.942 8.940,23.942 C8.940,23.942 8.940,20.973 8.940,20.973 C8.940,20.973 21.011,20.973 21.011,20.973 C21.011,20.973 21.011,8.967 21.011,8.967 C21.011,8.967 23.980,8.966 23.980,8.966 C23.980,8.966 23.980,20.973 23.980,20.973 C23.980,20.973 35.987,20.973 35.987,20.973 C35.987,20.973 35.987,23.942 35.987,23.942 Z" id="path-1" class="cls-2" fill-rule="evenodd"/>
</svg>
