<svg xmlns="http://www.w3.org/2000/svg" xmlns:xlink="http://www.w3.org/1999/xlink" preserveAspectRatio="xMidYMid" width="90" height="90" viewBox="0 0 90 90">
  <defs>
    <style>

      .cls-2 {
        fill: #ffffff;
      }
    </style>
  </defs>
  <path d="M44.999,90.006 C20.145,90.006 -0.001,69.858 -0.001,45.005 C-0.001,20.152 20.145,0.005 44.999,0.005 C69.852,0.005 90.000,20.152 90.000,45.005 C90.000,69.858 69.852,90.006 44.999,90.006 ZM44.999,1.993 C21.243,1.993 1.986,21.250 1.986,45.005 C1.986,68.760 21.243,88.018 44.999,88.018 C68.754,88.018 88.011,68.760 88.011,45.005 C88.011,21.250 68.754,1.993 44.999,1.993 ZM48.000,64.000 C48.000,64.000 42.000,64.000 42.000,64.000 C42.000,64.000 42.000,47.000 42.000,47.000 C42.000,47.000 25.000,47.000 25.000,47.000 C25.000,47.000 25.000,41.000 25.000,41.000 C25.000,41.000 42.000,41.000 42.000,41.000 C42.000,41.000 42.000,24.000 42.000,24.000 C42.000,24.000 48.000,24.000 48.000,24.000 C48.000,24.000 48.000,41.000 48.000,41.000 C48.000,41.000 65.000,41.000 65.000,41.000 C65.000,41.000 65.000,47.000 65.000,47.000 C65.000,47.000 48.000,47.000 48.000,47.000 C48.000,47.000 48.000,64.000 48.000,64.000 Z" id="path-1" class="cls-2" fill-rule="evenodd"/>
</svg>
