<?xml version="1.0" encoding="utf-8"?>
<!-- Generator: Adobe Illustrator 18.0.0, SVG Export Plug-In . SVG Version: 6.00 Build 0)  -->
<!DOCTYPE svg PUBLIC "-//W3C//DTD SVG 1.1//EN" "http://www.w3.org/Graphics/SVG/1.1/DTD/svg11.dtd">
<svg version="1.1" id="Layer_1" xmlns="http://www.w3.org/2000/svg" xmlns:xlink="http://www.w3.org/1999/xlink" x="0px" y="0px"
	 viewBox="0 0 250 250" enable-background="new 0 0 250 250" xml:space="preserve">
<g>
	<g>
		<path fill-rule="evenodd" clip-rule="evenodd" fill="#FFFFFF" d="M146.8,127.9c-0.3-14.4-0.8-28.2-1.5-41.1
			c6.6-4,11-9.8,11.8-16.4H92.8c0.8,6.6,5.2,12.5,11.8,16.4c-0.7,13-1.2,26.8-1.5,41.1c-6.7,4.4-10.8,10.8-10.8,18
			c0,2.5,0.5,5,1.5,7.3h26.8c0,0.2,0,0.4,0,0.6c0,29.1,2,52.7,4.4,52.7c2.4,0,4.4-23.6,4.4-52.7c0-0.2,0-0.4,0-0.6h26.8
			c1-2.3,1.5-4.8,1.5-7.3C157.7,138.8,153.5,132.4,146.8,127.9z M125,0C56,0,0,56,0,125c0,69,56,125,125,125s125-56,125-125
			C250,56,194,0,125,0z M125,245.9C58.2,245.9,4.1,191.8,4.1,125C4.1,58.2,58.2,4.1,125,4.1c66.8,0,120.9,54.1,120.9,120.9
			C245.9,191.8,191.8,245.9,125,245.9z"/>
	</g>
</g>
</svg>
