<?xml version="1.0" encoding="utf-8"?>
<!-- Generator: Adobe Illustrator 18.0.0, SVG Export Plug-In . SVG Version: 6.00 Build 0)  -->
<!DOCTYPE svg PUBLIC "-//W3C//DTD SVG 1.1//EN" "http://www.w3.org/Graphics/SVG/1.1/DTD/svg11.dtd">
<svg version="1.1" id="Layer_1" xmlns="http://www.w3.org/2000/svg" xmlns:xlink="http://www.w3.org/1999/xlink" x="0px" y="0px"
	 viewBox="0 0 250 250" enable-background="new 0 0 250 250" xml:space="preserve">
<g>
	<g>
		<path fill-rule="evenodd" clip-rule="evenodd" fill="#FFFFFF" d="M124.5,48c-42.1,0-76.2,34.1-76.2,76.2
			c0,14.3,3.9,27.7,10.8,39.1l-16.4,42.6l42.5-16.4c11.5,6.9,24.9,10.9,39.2,10.9c42.1,0,76.2-34.1,76.2-76.2S166.6,48,124.5,48z
			 M124.5,189.9c-36.3,0-65.8-29.5-65.8-65.8c0-36.3,29.5-65.8,65.8-65.8c36.3,0,65.8,29.5,65.8,65.8
			C190.3,160.5,160.9,189.9,124.5,189.9z M125,0C56,0,0,56,0,125s56,125,125,125c69,0,125-56,125-125S194,0,125,0z M125,245.8
			C58.3,245.8,4.2,191.7,4.2,125C4.2,58.3,58.3,4.2,125,4.2c66.7,0,120.8,54.1,120.8,120.8C245.8,191.7,191.7,245.8,125,245.8z"/>
	</g>
</g>
</svg>
