<svg xmlns="http://www.w3.org/2000/svg" xmlns:xlink="http://www.w3.org/1999/xlink" preserveAspectRatio="xMidYMid" width="45" height="45" viewBox="0 0 45 45">
  <defs>
    <style>

      .cls-2 {
        fill: #ffffff;
        opacity: 0.9;
      }
    </style>
  </defs>
  <path d="M22.516,44.996 C10.089,44.996 0.016,34.925 0.016,22.500 C0.016,10.076 10.089,0.004 22.516,0.004 C34.942,0.004 45.016,10.076 45.016,22.500 C45.016,34.925 34.942,44.996 22.516,44.996 ZM22.516,1.996 C11.191,1.996 2.011,11.176 2.011,22.500 C2.011,28.139 4.290,33.245 7.974,36.952 C7.974,36.952 10.799,29.606 10.799,29.606 C9.569,27.551 8.850,25.155 8.850,22.586 C8.850,15.013 14.988,8.874 22.561,8.874 C30.134,8.874 36.273,15.013 36.273,22.586 C36.273,30.158 30.134,36.297 22.561,36.297 C19.983,36.297 17.579,35.573 15.519,34.335 C15.519,34.335 8.188,37.154 8.188,37.154 C11.885,40.769 16.937,43.004 22.516,43.004 C33.840,43.004 43.020,33.824 43.020,22.500 C43.020,11.176 33.840,1.996 22.516,1.996 ZM22.561,34.428 C29.101,34.428 34.403,29.126 34.403,22.586 C34.403,16.046 29.101,10.744 22.561,10.744 C16.021,10.744 10.719,16.046 10.719,22.586 C10.719,29.126 16.021,34.428 22.561,34.428 Z" id="path-1" class="cls-2" fill-rule="evenodd"/>
</svg>
