<svg xmlns="http://www.w3.org/2000/svg" xmlns:xlink="http://www.w3.org/1999/xlink" preserveAspectRatio="xMidYMid" width="90" height="90" viewBox="0 0 90 90">
  <defs>
    <style>

      .cls-2 {
        fill: #ffffff;
      }
    </style>
  </defs>
  <path d="M44.999,90.006 C20.145,90.006 -0.001,69.858 -0.001,45.005 C-0.001,20.152 20.145,0.005 44.999,0.005 C69.852,0.005 90.000,20.152 90.000,45.005 C90.000,69.858 69.852,90.006 44.999,90.006 ZM44.999,1.993 C21.243,1.993 1.986,21.250 1.986,45.005 C1.986,68.760 21.243,88.018 44.999,88.018 C68.754,88.018 88.011,68.760 88.011,45.005 C88.011,21.250 68.754,1.993 44.999,1.993 ZM44.811,72.118 C39.654,72.118 34.847,70.668 30.727,68.193 C30.727,68.193 15.380,74.096 15.380,74.096 C15.380,74.096 21.287,58.736 21.287,58.736 C18.828,54.626 17.388,49.834 17.388,44.695 C17.388,29.550 29.666,17.273 44.811,17.273 C59.956,17.273 72.234,29.550 72.234,44.695 C72.234,59.840 59.956,72.118 44.811,72.118 ZM44.811,21.013 C31.731,21.013 21.128,31.616 21.128,44.696 C21.128,57.776 31.731,68.379 44.811,68.379 C57.890,68.379 68.494,57.776 68.494,44.696 C68.494,31.616 57.890,21.013 44.811,21.013 Z" id="path-1" class="cls-2" fill-rule="evenodd"/>
</svg>
