<?xml version="1.0" encoding="utf-8"?>
<!-- Generator: Adobe Illustrator 18.0.0, SVG Export Plug-In . SVG Version: 6.00 Build 0)  -->
<!DOCTYPE svg PUBLIC "-//W3C//DTD SVG 1.1//EN" "http://www.w3.org/Graphics/SVG/1.1/DTD/svg11.dtd">
<svg version="1.1" id="Layer_1" xmlns="http://www.w3.org/2000/svg" xmlns:xlink="http://www.w3.org/1999/xlink" x="0px" y="0px"
	 viewBox="0 0 250 250" enable-background="new 0 0 250 250" xml:space="preserve">
<g>
	<g>
		<path fill-rule="evenodd" clip-rule="evenodd" fill="#FFFFFF" d="M125,0C56,0,0,56,0,125c0,69,56,125,125,125s125-56,125-125
			C250,56,194,0,125,0z M125,245.8C58.3,245.8,4.2,191.7,4.2,125C4.2,58.3,58.3,4.2,125,4.2c11.8,0,23.2,1.7,33.9,4.8
			c-1.8,31.5-2.7,63.8-2.7,96.9c0,22.6,0.5,44.9,1.3,66.8c-6.9-7-18.9-12.5-33.1-14.3c-23.3-2.8-43.5,5.7-45.1,19
			c-1.6,13.3,16,26.4,39.3,29.2c23.3,2.8,43.5-5.7,45.1-19c0.1-0.5,0-1,0-1.5c0.3-0.4,0.6-0.8,0.8-1.3c1.2-25.8,1.9-52.2,1.9-79
			c0-32.5-0.9-64.3-2.6-95.3c47.7,16.2,82,61.3,82,114.5C245.8,191.7,191.7,245.8,125,245.8z"/>
	</g>
</g>
</svg>
