<svg xmlns="http://www.w3.org/2000/svg" xmlns:xlink="http://www.w3.org/1999/xlink" preserveAspectRatio="xMidYMid" width="45" height="57" viewBox="0 0 45 57">
  <defs>
    <style>

      .cls-2 {
        fill: #eeeeee;
        opacity: 0.9;
      }
    </style>
  </defs>
  <path d="M45.016,34.500 C45.016,46.925 34.942,56.996 22.516,56.996 C10.089,56.996 0.016,46.925 0.016,34.500 C0.016,22.076 10.089,12.004 22.516,12.004 C24.386,12.004 26.194,12.257 27.932,12.687 C27.947,12.433 27.957,12.175 27.972,11.922 C28.184,12.228 28.386,12.541 28.585,12.855 C38.059,15.506 45.016,24.181 45.016,34.500 ZM28.779,14.978 C29.014,19.693 29.161,24.501 29.161,29.424 C29.161,33.908 29.047,38.305 28.852,42.619 C28.807,42.692 28.755,42.761 28.710,42.833 C28.709,42.916 28.712,42.998 28.702,43.080 C28.432,45.303 25.060,46.723 21.169,46.251 C17.279,45.780 14.343,43.595 14.613,41.372 C14.883,39.149 18.255,37.729 22.146,38.201 C24.522,38.489 26.537,39.418 27.688,40.603 C27.544,36.931 27.443,33.219 27.443,29.424 C27.443,24.413 27.581,19.509 27.824,14.715 C26.128,14.261 24.355,13.996 22.516,13.996 C11.191,13.996 2.011,23.176 2.011,34.500 C2.011,45.824 11.191,55.004 22.516,55.004 C33.840,55.004 43.020,45.824 43.020,34.500 C43.020,25.362 37.038,17.627 28.779,14.978 Z" id="path-1" class="cls-2" fill-rule="evenodd"/>
</svg>
