<svg xmlns="http://www.w3.org/2000/svg" xmlns:xlink="http://www.w3.org/1999/xlink" preserveAspectRatio="xMidYMid" width="90" height="90" viewBox="0 0 90 90">
  <defs>
    <style>

      .cls-2 {
        fill: #ffffff;
      }
    </style>
  </defs>
  <path d="M44.999,90.006 C20.145,90.006 -0.001,69.858 -0.001,45.005 C-0.001,20.152 20.145,0.005 44.999,0.005 C69.852,0.005 90.000,20.152 90.000,45.005 C90.000,69.858 69.852,90.006 44.999,90.006 ZM58.966,4.324 C59.592,15.630 59.933,27.243 59.933,39.112 C59.933,48.773 59.692,58.248 59.274,67.546 C59.172,67.712 59.064,67.872 58.961,68.036 C58.957,68.208 58.965,68.378 58.944,68.550 C58.363,73.343 51.092,76.403 42.706,75.386 C34.320,74.369 27.992,69.659 28.574,64.867 C29.155,60.076 36.424,57.015 44.812,58.032 C49.899,58.649 54.217,60.629 56.707,63.158 C56.400,55.274 56.230,47.258 56.230,39.112 C56.230,27.045 56.591,15.252 57.238,3.770 C53.358,2.620 49.252,1.993 44.999,1.993 C21.243,1.993 1.986,21.250 1.986,45.005 C1.986,68.760 21.243,88.018 44.999,88.018 C68.754,88.018 88.011,68.760 88.011,45.005 C88.011,26.141 75.862,10.125 58.966,4.324 Z" id="path-1" class="cls-2" fill-rule="evenodd"/>
</svg>
