<svg xmlns="http://www.w3.org/2000/svg" xmlns:xlink="http://www.w3.org/1999/xlink" preserveAspectRatio="xMidYMid" width="45" height="46" viewBox="0 0 45 46">
  <defs>
    <style>

      .cls-2 {
        fill: #eeeeee;
        opacity: 0.9;
      }
    </style>
  </defs>
  <path d="M45.016,22.813 C45.016,35.237 34.942,45.309 22.516,45.309 C10.089,45.309 0.016,35.237 0.016,22.813 C0.016,10.388 10.089,0.316 22.516,0.316 C24.200,0.316 25.835,0.516 27.413,0.866 C27.417,0.797 27.420,0.726 27.423,0.657 C27.683,0.720 27.941,0.784 28.197,0.856 C28.201,0.926 28.202,1.000 28.206,1.070 C37.872,3.594 45.016,12.357 45.016,22.813 ZM28.294,3.148 C28.518,7.750 28.661,12.437 28.661,17.237 C28.661,21.721 28.547,26.117 28.352,30.431 C28.307,30.505 28.255,30.573 28.210,30.646 C28.209,30.728 28.212,30.810 28.202,30.893 C27.932,33.116 24.560,34.536 20.669,34.064 C16.779,33.592 13.843,31.407 14.113,29.184 C14.383,26.961 17.755,25.542 21.646,26.013 C24.022,26.302 26.037,27.230 27.188,28.415 C27.044,24.744 26.943,21.031 26.943,17.237 C26.943,12.352 27.077,7.573 27.311,2.895 C25.770,2.525 24.170,2.308 22.516,2.308 C11.191,2.308 2.011,11.488 2.011,22.813 C2.011,34.137 11.191,43.317 22.516,43.317 C33.840,43.317 43.020,34.137 43.020,22.813 C43.020,13.497 36.803,5.645 28.294,3.148 Z" id="path-1" class="cls-2" fill-rule="evenodd"/>
</svg>
