<?xml version="1.0" encoding="utf-8"?>
<!-- Generator: Adobe Illustrator 18.0.0, SVG Export Plug-In . SVG Version: 6.00 Build 0)  -->
<!DOCTYPE svg PUBLIC "-//W3C//DTD SVG 1.1//EN" "http://www.w3.org/Graphics/SVG/1.1/DTD/svg11.dtd">
<svg version="1.1" id="Layer_1" xmlns="http://www.w3.org/2000/svg" xmlns:xlink="http://www.w3.org/1999/xlink" x="0px" y="0px"
	 viewBox="0 0 250 250" enable-background="new 0 0 250 250" xml:space="preserve">
<g>
	<g>
		<path fill-rule="evenodd" clip-rule="evenodd" fill="#FFFFFF" d="M125,0C56,0,0,56,0,125c0,69,56,125,125,125c69,0,125-56,125-125
			C250,56,194,0,125,0z M125,245.8C58.3,245.8,4.2,191.7,4.2,125C4.2,58.3,58.3,4.2,125,4.2c66.7,0,120.8,54.1,120.8,120.8
			C245.8,191.7,191.7,245.8,125,245.8z M157.1,164.2L157.1,164.2c-7.1,6.7-28.2-3.1-47.2-22.1c-19-19-28.8-40-22.1-47.1l0,0l0.1-0.1
			c0,0,0,0,0,0s0,0,0,0l8-8L69.3,56.8c-6.1,7-11,14.6-14.8,22.6c3.9,21.3,19.8,48.6,44.3,73.1c24.5,24.5,51.9,40.4,73.2,44.3
			c8-3.7,15.6-8.7,22.6-14.8l-29.3-26L157.1,164.2z"/>
	</g>
</g>
</svg>
