<svg xmlns="http://www.w3.org/2000/svg" xmlns:xlink="http://www.w3.org/1999/xlink" preserveAspectRatio="xMidYMid" width="45" height="45" viewBox="0 0 45 45">
  <defs>
    <style>

      .cls-2 {
        fill: #ffffff;
        opacity: 0.9;
      }
    </style>
  </defs>
  <path d="M22.516,44.996 C10.089,44.996 0.016,34.925 0.016,22.500 C0.016,10.076 10.089,0.004 22.516,0.004 C34.942,0.004 45.016,10.076 45.016,22.500 C45.016,34.925 34.942,44.996 22.516,44.996 ZM22.516,1.996 C11.191,1.996 2.011,11.176 2.011,22.500 C2.011,33.824 11.191,43.004 22.516,43.004 C33.840,43.004 43.020,33.824 43.020,22.500 C43.020,11.176 33.840,1.996 22.516,1.996 ZM17.805,27.133 C13.393,22.721 10.540,17.806 9.835,13.974 C10.509,12.533 11.401,11.163 12.493,9.902 C12.493,9.902 17.292,15.322 17.292,15.322 C17.292,15.322 15.858,16.755 15.858,16.755 C15.858,16.756 15.857,16.756 15.856,16.757 C15.856,16.757 15.856,16.758 15.855,16.758 C15.855,16.758 15.836,16.778 15.836,16.778 C15.836,16.778 15.841,16.783 15.841,16.783 C14.624,18.062 16.386,21.843 19.808,25.264 C23.229,28.686 27.010,30.448 28.289,29.231 C28.289,29.231 28.297,29.239 28.297,29.239 C28.297,29.239 29.762,27.775 29.762,27.775 C29.762,27.775 35.040,32.449 35.040,32.449 C33.780,33.540 32.412,34.431 30.974,35.105 C27.140,34.402 22.221,31.549 17.805,27.133 Z" id="path-1" class="cls-2" fill-rule="evenodd"/>
</svg>
