<svg xmlns="http://www.w3.org/2000/svg" xmlns:xlink="http://www.w3.org/1999/xlink" preserveAspectRatio="xMidYMid" width="90" height="90" viewBox="0 0 90 90">
  <defs>
    <style>

      .cls-2 {
        fill: #ffffff;
      }
    </style>
  </defs>
  <path d="M44.999,90.006 C20.145,90.006 -0.001,69.858 -0.001,45.005 C-0.001,20.152 20.145,0.005 44.999,0.005 C69.852,0.005 90.000,20.152 90.000,45.005 C90.000,69.858 69.852,90.006 44.999,90.006 ZM44.999,1.993 C21.243,1.993 1.986,21.250 1.986,45.005 C1.986,68.760 21.243,88.018 44.999,88.018 C68.754,88.018 88.011,68.760 88.011,45.005 C88.011,21.250 68.754,1.993 44.999,1.993 ZM35.549,54.907 C26.725,46.082 21.020,36.253 19.609,28.589 C20.957,25.708 22.741,22.968 24.925,20.445 C24.925,20.445 34.523,31.285 34.523,31.285 C34.523,31.285 31.657,34.150 31.657,34.150 C31.655,34.152 31.652,34.153 31.651,34.155 C31.648,34.157 31.648,34.160 31.645,34.162 C31.645,34.162 31.611,34.197 31.611,34.197 C31.611,34.197 31.616,34.202 31.616,34.202 C29.180,36.759 32.711,44.327 39.554,51.170 C46.397,58.012 53.963,61.544 56.522,59.108 C56.522,59.108 56.533,59.119 56.533,59.119 C56.533,59.119 59.461,56.191 59.461,56.191 C59.461,56.191 70.018,65.539 70.018,65.539 C67.499,67.720 64.761,69.502 61.885,70.850 C54.218,69.444 44.381,63.738 35.549,54.907 Z" id="path-1" class="cls-2" fill-rule="evenodd"/>
</svg>
