<?xml version="1.0" encoding="utf-8"?>
<!-- Generator: Adobe Illustrator 18.1.1, SVG Export Plug-In . SVG Version: 6.00 Build 0)  -->
<svg version="1.1" id="Layer_1" xmlns="http://www.w3.org/2000/svg" xmlns:xlink="http://www.w3.org/1999/xlink" x="0px" y="0px"
	 viewBox="0 0 250 250" enable-background="new 0 0 250 250" xml:space="preserve">
<g>
	<g>
		<path fill-rule="evenodd" clip-rule="evenodd" fill="#FFFFFF" d="M125,0C56,0,0,55.5,0,124.1c0,68.5,56,124.1,125,124.1
			c69,0,125-55.5,125-124.1C250,55.5,194,0,125,0z M58.8,224.4c1.1,0.7,2.2,1.4,3.4,2.1c5.4-3.7,12.7-4.2,18.8-0.7
			c5,2.8,8,7.7,8.6,12.9c7.2,2.2,14.7,3.7,22.4,4.5c3.2-3.5,7.9-5.8,13-5.8c5.2,0,9.8,2.2,13,5.7c-4.3,0.5-8.7,0.7-13.1,0.7
			C100.6,244,77.9,236.8,58.8,224.4z M125,227.5c-43.1,0-78.1-34.7-78.1-77.5s35-77.5,78.1-77.5s78.1,34.7,78.1,77.5
			S168.2,227.5,125,227.5z M187.8,226.5c-8.5,5.1-17.7,9.3-27.4,12.2c0.7-5.2,3.7-10.1,8.6-12.9
			C175.2,222.4,182.4,222.9,187.8,226.5z M160.5,238.7c-7.2,2.2-14.7,3.7-22.4,4.6C145.8,242.5,153.3,240.9,160.5,238.7z
			 M187.9,226.5c1.2-0.7,2.4-1.5,3.5-2.2C190.2,225,189,225.8,187.9,226.5z M191.9,224c1.2-0.8,2.4-1.6,3.5-2.4
			C194.2,222.4,193,223.2,191.9,224z M195.4,221.5c1.2-0.9,2.4-1.7,3.6-2.7C197.8,219.8,196.6,220.7,195.4,221.5z M199,218.9
			c1.2-0.9,2.4-1.9,3.5-2.8C201.4,217,200.2,217.9,199,218.9z M202.5,216c0.4-0.5,0.9-1,1.3-1.5c-5.2-5.5-6.4-13.9-2.4-20.7
			c4-6.9,12-10,19.3-8.3c2.3-6,4-12.3,5.1-18.7c-7.3-2.1-12.6-8.8-12.6-16.8c0-7.9,5.3-14.6,12.6-16.8c-1.1-6.5-2.8-12.7-5-18.7
			c-7.4,1.8-15.4-1.4-19.4-8.2c-4-6.9-2.8-15.3,2.5-20.8c-4.2-5-8.8-9.6-13.8-13.8c-5.5,5.2-14,6.5-21,2.5
			c-6.9-4-10.1-11.9-8.3-19.3c-6-2.2-12.4-3.9-18.9-5c-2.1,7.3-8.9,12.6-16.9,12.6c-8,0-14.8-5.3-16.9-12.6
			c-6.5,1.1-12.8,2.8-18.9,5c1.8,7.4-1.4,15.3-8.3,19.3C74,78.2,65.5,77,60,71.8c-5,4.1-9.7,8.7-13.8,13.7
			c5.2,5.5,6.5,13.9,2.5,20.8c-4,6.9-12,10-19.4,8.2c-2.3,6-4,12.3-5,18.7c7.3,2.1,12.6,8.8,12.6,16.8c0,7.9-5.3,14.6-12.6,16.8
			c1.1,6.5,2.8,12.7,5.1,18.7c7.4-1.7,15.4,1.4,19.3,8.3c4,6.8,2.8,15.2-2.4,20.7c0.6,0.7,1.1,1.3,1.7,2c1,0.9,2.1,1.7,3.2,2.5
			c-28.6-21.9-47-56.3-47-94.9C4.2,57.8,58.3,4.1,125,4.1c66.7,0,120.8,53.7,120.8,119.9C245.8,161,229,194,202.5,216z M58.2,224
			c-1.1-0.7-2.2-1.5-3.3-2.3C56,222.5,57.1,223.3,58.2,224z M54.9,221.8c-1.1-0.8-2.1-1.6-3.2-2.4C52.7,220.2,53.8,221,54.9,221.8z"
			/>
	</g>
</g>
</svg>
